<svg xmlns="http://www.w3.org/2000/svg" xml:space="preserve" fill-rule="evenodd" stroke-linejoin="round" stroke-miterlimit="2" clip-rule="evenodd" viewBox="0 0 606 297"><path fill="#efc026" fill-rule="nonzero" d="m476.6 184.2.4-.4 1-.6-.1 1h-.6l-.4.5-.3-.5Zm-299.2 45.3-2.2-.2-.2.2-.5 1-.9-1-2.2-.4-1.6 1.6-1 .2-.5-2.2-.9-2 .5-1.6v-.3l-.9-.7-.3-1.2-.7-1 1-1.8-.7-1.6.4-.7-.2-.5.6-.8.1-2.6.3-.8-1.2-2.3h1.7l.6-.6 2.2-1.2 1.9-.3-.2 1 .2.7v1.3l1.9 1.6 2 .3.5.6 1.2.4.7.5h1.2l.8.4.4 1.8-.5.4.7 2 .2.2h3l-.2.9.2.6 1 .6.3 1-.3 1.3-.4.7v1l-1.7-1.1H182l-3 .5-1 1.7v1l-.6 1.4Zm348.8-117.3 1.2.5 1.1-.7.3 1.7-2.3.5-1.4 2-2.5-1.3-.4.1-.8 2.1h-1.5l-.2-1.7.7-1.3 1.7-.2.3-.2.8-4 1.7 1.9 1.3.6Zm-5 13.8-.7 1.5.3 1-.7 1.2-2 .9-3.2.2-2.2 2-.8-.5V131l-.4-.3-2.9.4-2 1h-2l-.2.2v.2l1.6 1.3-1 3-.8.5-.6-.4.4-1.6-.1-.3-1-.5-.5-1 1.4-.5.9-1.1 1.7-1 1.2-1.3 3.2-.5 1.8.4.3-.1 1.6-3.2.8.8h.4l3.4-2.7 1.2-2.5-.3-2.3.6-1.1 1.4-.3.8 2.5v1.5l-1.5 1.9-.1 2Zm-10.7 6 .1.5-.6.8-.9-.5-.8.4-.5 1-.7-.4v-.6l.8-1 1 .1.6-.6 1 .3ZM331 77.4l1.6-1.2v-.4l-1.4-1 4.9-4.6.7-1.5-.1-.3-2.4-1.7.6-1.8-1.4-1.9 1.1-2.5-1.9-3 1.5-2v-.4l-2.6-1.9.2-1.7 1.2-.2 3-1.2 1.6-1 2.7 1.8 4.6.6 6.3 3.3 1.2 1.3v1.7l-1.6 1.3-2.6.7-7.5-2-1.4.3-.1.5 2.6 2 .2 3.9.2.3 3.5 1.5.4-.3.2-1.2-1-1.2.8-.8 4.1 1.6 1.5-.6.1-.4-1-1.9 3.6-2.5 1.4.1 1.6 1 .4-.2 1-2v-.1l-1.3-1.6.8-1.5-.9-1.6 4 .8.6 1.3-1.7.2-.2.3v1.6l1.7 1.2 2.6-.6.6-1.9 9.3-3.8h.6l-1.3 1.5.2.4 2 .3 1.4-1h3.1l2.5-1.2 1.8 1.6h.4l1.9-2v-.4l-1.6-1.5.6-.7 4.8.9 2.3 1 6 3.3h.4l1.2-1.6v-.3l-2-1.5v-.5l-.2-.3-1.7-.2.4-1.3-.9-2.4v-.8l3-2.8 1.2-2.9 1-.5 4.2.8.3 1.5-1.6 2.4.1.4 1 1 .6 2-.4 4 1.8 1.9-.7 1.7-3.3 4 .1.4 2 .4.3-.1.6-1 1.7-.6.6-1.5 1.4-1.4.1-.3-1-1.6 1-1.6-.3-.4-1.7-.2-.3-1.4 1.3-3v-.2l-2.1-2.3 2.8-2 .1-.3-.3-2h.3l.7 1.6-.6 3 .2.3 1.8.5.3-.3-.6-2 2.5-1.2 3.4-.1 3 1.7h.4v-.6l-1.5-2.5v-3.2l2.6-.6 4 .1 3.8-.4.2-.5-1.2-1.5 1.7-2 2-.1 3.2-1.7 4.4-.5.7-1 4.1-.2 1.6.7 3.7-1.8h3l.3-.2.5-1.4 1.5-1.5 3.9-1.4 2.1.9-1.7.6v.3l.1.2 3.7.5.4 1.6.4.1 1.4-.8h4.8l3.7 1.7 1.3 1.2-.4 1.5-6.2 2.8-1.3 1 .1.5 4.6 1.3 1.5-.6.7 1.9h.5l.7-.8 2.5-.5 5.2.6.4 1.3.2.2 7.1.5.3-.3v-2l3.3.5h2.7l2.6 1.6.7 1.9-.9 1.2v.3l2.3 2.5 2.7 1.4.4-.1 1.5-3 2.6 1.2 2.9-.8 3.2 1 1.3-1 2.6.5.3-.4-1.1-2.7 2-1.3 15 2 1.4 2 4.5 2.3 7-.5 3.2.4 1.2 1.2-.2 2 .1.4 2.1.8 2.4-.6h3l3.2.6 3-.4 3 2.6h.2l2-.9.2-.4-1.3-1.7.6-1 5.2.8 3.5-.2 4.8 1.4 6.4 3.5 4.3 2.7-.2 1.7 1.3.9.4-.3-.3-1.7 4.2.5 3 2.3-1.4 1-2.7.2-.3.3v2.6l-.5.4-1.4-.1-1.3-1-2.1-.7-.5-1.2-1.9-.5-1.7.4-.7-.8.3-.9-.3-.3-2 .7-.2.4.7 1.1-.8 1-2 1.2-2.1-.2-.3.1v.4l1.6 1.4 1 2.1.8.8.1.9-.2.4-3.1-.5-4.8 2-1.4.2-5.4 3.4-.5 1-2.4-1.6-4.2 2-.6-.9h-.4l-1.5 1-2.2-.4-.2.2-.6 1.6-2 2.6v1l.3.3 1.7.5-.3 3h-1.1l-.2.3-.7 2 .5.9-2.6 1-.7 2.7-2.4.5-.2.2-.4 2.2-2.1 1.8-.5-1.1-1.6-8.4.8-3.2 1.3-1.4.2-1 2.5-.7 3-3 3-2.6 3-2 1.5-3.8-.3-.4-2 .2-1.2 2.2-4 2.7-1.3-2.9h-.3l-4.4.8-4.4 4.3v.4l1 1.2-5.4.8.1-1.5-.2-.3-2.6-.4-2.2 1.2-5.1-.4-5.8.8-11.9 10.4.1.5 2.5.3 1 1.4 1.6.6 1.3-1.2 1.6.2 2.3 2.3v1.8l-1.3 2.3-.1 2.6-.8 3.4-2.5 3-.6 1.6-5.6 6-2.1 1.1h-.9l-1-1h-.3l-1.6 1 .3-2.4-.4-1.6 1.2-.6 2 .3.2-.1 1.2-2 .6-2.4.6-.8 1-2-.4-.4-2.8.7-1.5.8h-2.3l-.7-2-2-1.5-3-.8-1.1-3.4-1.9-3.4-1.5-.9-2.6-.6H490l-2.1.4-1.5 1.3v.4l.8.5v1l-.9.7-1.5 2.4v.9l-2.2 1.2-1.9-.8-2 .1-.9-.7-1-.3-2.6 1.6-2.2.3-1.5.6-2-.4H467l-1-1-1.8-1.1-1.8-.3-3.7.7-2.1-.8-.5-1.8-3.5-.8-1.9-1-.3.1-1.8 2.3.6 1.4-1.5 1.3-2.3-.5-1.6-.1-1.2-1h-1.7l-1.6-.8-2.6 1.1-3.2 2-2.2.4-1-1.2-2 .2-.8-.8-1-.4-1-1.3-.9-.4-2.5.5-2.2-1.2h-.4l-.6 1-3.6-5.5-2-1.7.4-.5v-.6h-.3l-4.2 2.1H408l.1-.9-.2-.2-2.1-.9-1.7.5-.5-2.1-.2-.2-3-.6-1.7 1-4.2 1-.9.5-6.4.9-.8.8v.3l1 1.3-1.2.5-.2.4.2.4-1.4 1v.4l2.6 1.4-.3.7h-2.2l-.6.5-2-1h-2.9l-1.8 1-5.6-2.4h-2.6l-3.7 2.5-.2 1.4-1.4-1h-.4l-1.3 2.4.4.7-1 1.4.1.4 1.5 1.5h1.3l1 1.2-.2 1 .2.3.5.2-.5.8-1.7.4-1.7 2.2v.3l1.5 2-.2 1.4 1.7 2.2-1 1h-.5l-1.1-1.2-1.6-.5-.6-.9-1.5-.4-1 .3-.3-.4-2.4-1-3.9-.6h-.3l-2-1.5-2-.8-1-.8 1-.3 1.4-1.8v-.4l-.6-.5 2-.8.2-.2v-.5l-.4-.3-1.1.3v-.5l.7-.4 1.8-.4.3-.9-.4-1 .6-1v-.9l-.2-.2-2.5-.8h-1l-.9-1-1.4.4-2-.7v-.4l-.5-1-1.4-.2v-.3l.3-.3v-.4l-1.1-1.3h-2.5l-.6.5h-.4l-.6-2h1.4l.7-.4v-.4l-.5-.7-1-.3v-.5l-.7-.4-1-1.4.4-.6-.4-1.4-1.6-.5-.9.2-.3-.6-1.7-.5-.4-1.3-.2-1.1-.7-.6.7-.8-.5-2.1 1.1-1.4-.2-.2Zm173.7 37.4-.4.3v-.2l.4-.1Zm82.7-70.7 1.5-.1 2.2.8-1.6.7-3.8.4-.2-.6 1.9-1.2Zm-50.2-11.7-1.3 1-2.6-.3-2.9-1.3.2-.7 6.6 1.3Zm-9.2-1.6-1.1 2h-6l-2.9.7-3-2 .8-2 2-.6 4.4.1 5.8 1.8Zm-3.7 60-.5-.7h.3l.2.7Zm0 .3.6 2.3v2.3l.7 2.3 1.5 3.4-2-.5-.3.2-1 3.1 1.6 2.4v.7l-.8-.8h-.4l-.8 1.2-.2-1.1.2-2.1-.2-2.3.4-1.7.1-3-1-2.2.1-3 1.5-1v-.2Zm-4.2-53.3 1.2-1 2-.3 2.1 1.3v.4h-2l-3.3-.4Zm-59.5-17.2-8.8 1.2 2.7-4.3 1.2-.4 1.2.2 4 2-.3 1.3Zm-8.7-2.2-3.5.4-4.6-1-2.7-1.5-1.4-2.8-1.8-.6 3.9-2.4 3.5-.9 3.1 2 3.8 3.6-.3 3.2Zm-72 27.7h-.4l-5.2-.3-.7-1.4-2.9-.8-.2-1.3 1.6-.6.1-.2v-1.7l3.2-2.6-.1-.5-1-.3 3.5-2.6.2-.2-.4-1.3 3.5-1.7 5.6-2.2 5.6-.7 2.9-1.3 3-.4 1 1.1-.9.9-11 3.3-5.4 3.3-5.2 6.5.5 2.7 2.7 2.3Zm-10.4-34-3.7.8-.4.6-1.7.6-1.4-.8.7-.9-.2-.4h-1.6l1.2-.3 2.3-.1.3.9.5.1 1-.9 1.4-.6 2 .7-.4.3Zm-48.1 77.4h-2.8l-1.7-.1.2-.6 2.1-.7 2.2.7v.7Z"/><path fill="#efc026" fill-rule="nonzero" d="M494.8 207.3v-.6l3-.6-1.9.8-1.1.4Zm-122.4-90.4v.2l-.1-.1.1-.1Zm2-.7.3-.1 1 .5 1.4 1.6 2.8-.2.2-.3-.2-.8 1.3-.6 1.3-1 2 .9.2 1.6.8.5h1.8l.4.2.9 2.1 3 2.3 1.8 1 2.1.7v.7l-.9-.5-.4.1-.2.6-1.5.5-.3 1.4-.8.5-1.3.3-.5.8-1 .2-1.5-.6-.2-1.4-.2-.3h-1.3l-1.9-1.8-1.4-.2-1.9-1-1.2-.3-.8.4h-1l-1.4 1-1.2.3-.2-1 .2-2-.1-.3-1.2-.6.4-1.1-.2-.4h-.8l.2-1.1 1.5.4 1.5-.7v-.4l-1.1-1.1-.4-.8Zm28.2 4.1-1.7-.3-.3.2-.2 1.2.3.2 1.7-.1 2.2.6 3-.3.4 1.6.3.2h.5l.7.2.2 1.5-2.6-.2-1.2 1-1.2.4-.4-.4.1-1.5-.4-.3v-.7l-1-.4h-.3l-.8.7-.3 1h-1l-.6.8-.6-.3-1.3.5 1-2-.4-1.4-1.2-.5.2-.5h1.5l.8-1 .6-1.3 1.6-.3-.2.6.6.8Zm-51.3-6.7 3.5.6 2.8 1.4 1-.3 1.4.4.4.7.8.4-.1.4.7 1-.7-.2-1.2-.5-.6.3-2.2.3-1.5-1-1.6.1.2-.6-.6-1.6-1-.7-1-.3-.3-.4Zm31.3 41.8-.7 1.2h-.8l-.4.5-.2 1 .2 1-.8.2-1.1.6-.6 1.2h-1l-.7.5-.2.7-.6.3-1-.1-1.6.6-1.7-3.6 5-1.9 1-3.5-.6-1.4v-.5l.4-.7v-.7l.7-.3v-1.4h.5l.6 1 1 .8 2.3.5 1.1 1.6.6.3-.8 1.6-.6.5Zm-33.4-19.9-3.5 1.1-.1.4 1.5 1.6-.6.8-1.2.2-1.1 1.2-1.6-.3.8-2.9.4-2.8 2 .6 3-1.8.4 1.9Zm-38.1-29.3.4-1.1-.1-.3h.4l.3-.2v-.4l1.3.6 1.5-.3.3-.5 2.3-.5.5-.6h.4l1.8.6.4-.2.7.5v.2l-.9.5-1.7 2.8-1.2.3h-1.2l-1.8.7-1.3-.3-1.7-1.1-.4-.7Zm-40.7 19.9-.4.3-.8-.3-.6.2.2-1.2v-1.3l-.9-.4-.3-.5v-1.1l.8-.9.4-2v-.9l-.4-1.2 1-.6.5.9 2-.2.4.7-.7.6v1.5l-.3.4v.7l-.6.1-.2.5.6 1-.4 1.2.6.8-.8 1-.1.7Zm53.7 84.9.3.2h1.7l.7.9 1.3.2 1-.4.4.8 1.3.2 1.2 1.7 1.5.1.2-.3-.1-1.8-.4-.2-.4.2-1.3-.8.5-3.6-.4-.8.4-.9 2.5-.4.2.4.8.4h.7l1.4.4 1 .5.7.6.4 1.3-.6 1.8.2 1.4-.5.7-.5 1.6.4.4-4.4 1.3-.2.2v1l-1 .3-1 .7-.3.6-.6.2-2.3 2.5-2.9-.4-1-.6h-1.2l-1.2.2-2-2.2v-5.2h3.3l.2-.3v-.6l.1-.5-.3-1 .2-.8Zm-159.5-12.2h-.8l-.4.2-1.3.3-2 1.2-.3 1-.4.5v1l-.8.4-.1.8-.4.5.7 1.6.8 1-.2.5.2.4h1l.8 1h1.5l1-.7v2l.2.3.7.2 1-.2 1.2 2.4-.3.6-.2 2.7-.6 1 .3.6-.3.7.6 1.4-1.4 2.5-.7.4-1.4-1-.3-.7-3.3-1.8-3-1.9-1.3-1-.6-1.2.2-.7-1.4-2.2-3.2-6.5-.7-.8-.6-1.3-2.3-1.7.4-.8-.7-1.5.4-1 1-.8-.4.7v.6l.4.3h1.1l.7.8h.3l1-.6.4-1.2 1-1.4 2-.6 1.8-1.8.6-1.1v-1.3l.9.6.6.9.7.4 1.2 1.8 1.2.2 1-.4.7.3.9-.2 1 .6-1 1.5.2.4h.4l.3.1Zm249.7-69.4-1.3 1.2-1.7.3-2.5-.5-1 .9-.2.2 1.3 3 1.1.8-1.1.9-.1 1.4-1.6 1.8-1 1.8-1.7 1.9-2-.1-2 1.9v.4l1 .7.3 1.3 1 1 .2 1.2h-3.4l-1.2 1.1-1-.3-.5-1.3-1.5-1.4-7.9.6.5-1.6 2.3-.8.1-.3v-.8l-.9-.4-.2-1.7-1.6-.7-.8-1.3 1.9.6 1.7-.3 1 .2.5-.4 1.1.1 2.2-.7.2-.3v-1.5l.9-.8h1.1l.4-.6 1.1-.2.8.2.7-.6V135l.6-1 1-.4.1-.4-.4-.9h1.3l.5-.7v-.8l.7-.7-.1-1.3-.3-.6.8-.7 3.6-.6 1.8-.6 1 .9.7 1.5 2.5.7Zm82.1 48.2.3 2-.2.8-.4-1h-.4l-.9.8.5 1.4-.3.5-1.6-.8-.4-1 .4-.7v-.3l-1.1-.8h-.4l-.5.7h-.8l-1 .6.5-1.2 1.7-1 .5.6h.3l1.3-.4.4-.7 1-.1.3-.3v-.8l.7.5.1 1.2Zm-2.2-4.9v.8l-.5-.3-.1-.5h.6Zm.3-.3v-.7l-.7-1h1l.2.6.4 1.3-.9-.2Zm-.2 1 .3.8h-.2l-.1-.8Zm-6.1-13 1 .5.5-.2-.2.9.5 1.1-.4 1.2-1 .7-.3 1.5.4 1.3 1 .4.9-.2 1.8.8-.1.8.5.5v.3l-1-.6-.6-.9h-.5l-.2.4-1.1-.9-1.5.3-.6-.3v-.4l.5-.4v-.4l-.5-.4-.5.3-.5-.6-.2-1.7.2.2.5-.2.2-2.7.4-1.4.8.1Zm4.2 13.9-.6.6-.8 1.3-.7-.8.6-.8.2-1h.4l-.2.7.1.3h.3l.7-1v.7Zm-2.8-2 .5.2h.8v.3l-1.3 1v-1.5Zm-1.4-2.6-.2.9-1-1.3h.8l.4.4Zm-5.5 6.6.5-.5-.5.5Zm1.8-1.9.5-1 .1.5-.6.5Zm-169.1-74-.8-1-1.3-.2-.4-.7-1.1-.3-.4.5-.5-.3V98l-.1-.3-1.2-.2-.7-.6-.6-1.3.1-.8-.4-1.2-.5-.8.4-.6-.3-1 .9-.5 4.7-1.9 1.4.4.3.6 3.7.3 3-.1.8.2.3.5.1 1.1.4.8v.7l-.9.4-.1.3.5 1v1.1l.8 2-.1.3-.8.3-1.6 1.8.2.6-1.4-.7-1.3.3-1-.2-.8.4-.7-.7-.6.2Z"/><path fill="#efc026" fill-rule="nonzero" d="m327 77.2 1.7.4 1.8.1-1 1.3.3 2.4-.5.6h-1.2l-2.2-1.2-1.2.2.1-1-.4-.3-.5.2-.8-.6-.2-1.1 2-.6 2.1-.4Zm4.3 60.7 1 .3 2-1 1.4-.2 1 .2.4.8h.5l.2-.4 1.3.4 1.3.1.7-.3 1 2.8-1.4 3-1.2-1.2-1.2-2.6-.4-.1-.3.5.7 2 2.3 4.6 1.2 2 1.4 1.8-.3.3.1 1.3 1.9 1.5h-19v-12.8l-.5-1.5.4-1-.2-1 .4-.6h2.1l3.2 1.1Zm-16.9 113.5V250l-.5-1 .5-.5-.1-1.6-3.1-5.5.5-.6.4.3.5 1 1.9.4 1-.2 1.5-1 .1-6.4 1 1.5-.2 1 .4.8.3.2 1.2-.2 1.8-1.4.5-1 .6-.3 1.5.7h1.4l1.2-.3.6-1.4 1-.2 1-2 1.4-1.2 2.3-1.3 1.4.3.6-.2.7.2 1.2 3.5-.2 2.2-.6-.1-.7.3-.6 1.2v.8l1.4 1.2 1-.2.5-.8h.7l-.5 2.5-.4.7-1.5 1.2-2.2 3.3-1.9 1.8-2.4 2-1.7.7h-.8l-.3.5-.8-.2-1 .3-1.7-.3-1.1.2h-.8l-1.7.7-1.4.3-1.1.7h-.6l-.6-.6h-.6l-.7-.8-.3.2Zm16.5-6 .4-.7 1-.4.8-1.5v-.3l-1.4-1.2-1.1.4-1 .8-.9 1.1v.4l1.3 1.4h.9Zm-175.1-53.2.2 1.1-.5 1-1.7 1.7-2.1.8-1 1.4-.4 1.2-.6.5-.7-.8-1.2-.1.4-.8v-.6l.7-1.4-.3-.7h-.5l-.5.5-.6-.4.3-.5-.3-1.3.6-.3.2-1 .7-1.1-.1-.7 1.7-.9 2 1 .5.6 1.4.3.5-.2 1.3.7ZM465.2 155l-1.8 1.2-1.5 1.7-.4 1.3 3 4.3 1.5 1 1 1.4.7 3-.2 2.9-1.3 1-2 1-1.3 1.6-1.8 1.4-.4-.7.4-1-.1-.3-.9-.7 1-.5 1.7-.1.2-.4-.5-.8 2.7-1.4.2-2-.4-1.3.2-1.8-.4-1.3-1.3-1.3-2.4-3.5-1.9-1 .3-.4 1-.4.2-.3-.7-1.6-.3-.1h-1.9l-1.5-2.6.6-.3 3-.2 1.4-.9.8.6 1.3.3-.2 1 .9.8 1.1.4ZM280 113.8l.7.8 3.1 1 .8-.5 1.7 1 1.8-.3.1.8-1.4 1.2-2.1.4-.2.2-.1.6-1 1.1-.7 1.7.5 1.1-.9.9-.3 1.1-1.3.4-1.1 1.4h-3.7l-1.2.8-.6.7-.6-.2-.5-.5-.5-1-1.6-.5-.1-.3.8-1.2-.5-.8.4-1.1-.6-1.1.6-.3.1-.9.3-.4v-1.4l.6-.5.1-.3-.7-1.1-1-.1-.4.3h-.7l-.4-.8-.3-.2-.9.5v-1l-.5-.7 2-1.3 2 .4h2.3l1.7.3 4.3-.2Zm123.1 2.4-1 1v.4l1.2.8 1.4-.4 1.5.8-1.7 1.1-1.8-.2-.1-.2.3-.8-.3-.4-2.2.5-1.5 2.4-1.2-.1-.7 1 .1.4 1.1.4.3 1.2-.8 1.7-1.8-.3v-1l-.2-.2-2.2-.9-1.8-.9-3-2.2-.8-2.1-.8-.4h-1.7l-.5-.2-.3-1.7-2.3-1h-.3l-1.4 1.1-1.4.7-.2.3.2.7H378l-.1-7 4-1.2 4.2 2.3 1.8 2 4.8-.5 1.8 1.3-.1 1.9.2.3h.6l.3 1.4.3.2h2l.6 1 .9-.1.7-1.4 3.1-1.7Zm50.8 38.7-1.3 1.1-.4.7-1 .4-1 .7-1.3.3-.7 1.8-.6.3-.2.4.8 1.6 1.7 2.3-.5 1.2-.5.3-.1.3.5 1 1 1.3.2 1.7.6 1.4-1.3 2.5.5-1.5-.6-1.2.2-1.7-.7-1-.8-4.2-.8-1.6h-.4l-2.9 2-1.6-.4.6-1.9-.4-1.8-1.3-2 .2-.5-.2-.4-1-.2-1-1.2v-1h.5v-1.1l.7-.4v-.8l.3-.7v-1.5l1 .3.4-.2.8-1.5v-.9l1-1.5V146l2-1.1 1 .3.3-.3-.1-1 .4-.2v-.7h.6l.5.9.7.5v2.6l-1.6 1.6-.2 2 .3.4 1.6-.3.3 1.4 1 .5-.4 1.2.2.3 2 1 1-.4v.2Zm1.8-56.4 2.6 1.1 3.8-.6 1.7.2 1.5 1 1.2 1.3h1.6l2 .3 1.7-.5 2.3-.4 2.4-1.5.8.2 1 .7 1.6-.1-1.8 3.3.4 1.2.3.1.9-.2 1.6.3 1.3-.7 1.3.6 1.4 1.3-.1.3-1.1-.2-2.6.4-1.3.7-1.2 1.3-2.5.8-1.7 1.1-2.5-.6-.3.1-.9 1.4.7 1.5-1 .6-1.2 1-1.9.7h-2.5l-2.7.8-2 1-.7-.6h-2l-2.4-1.2-1.8-.3-2.3.2-3.4-.4h-1.7l-1-1-.9-2-1-.3-2-1.2-4.3-.6-.4-.8.6-2.6-1.3-1.8-2.4-.8-1.3-1-.3-1.2 1.5-.3 3.2-2 2.5-1 1.5.7h1.6l1.3 1.1h1.6l2.7.5 1.7-1.5v-.3l-.6-1.2 1.5-2 1.8.9 3.3.8.2 1.4Zm27.7 85.6-1 .4-1.4-.2h-2l-.3.2-.5 1.9-.7.6-.8 2.3-1.1.3-1.7-.5-1 .2-.8.8H471l-1 .2-1-.8v-.5l.8.3 1.3-.3.5-1.5 2.7-.7 2-2.1.5.6h.4l.2-.4h.7l.3-.2.1-1.8 1.2-1.1.8-1.3h.5l.7.7.2.9 2.3.9v.3h-1l-.2.4.4.4Zm-29.6-2.6.1.8.3.2 1.2-.2.6-.7 1 1 .8 1.1-.1 2 .3 1.5.6.6.6 1.6h-.8l-3.5-2.4-.2-.9-1-1-.1-1.4-.6-1 .1-1.1-.3-.7 1 .6Z"/><path fill="#efc026" fill-rule="nonzero" d="m299.2 116.1-.4 1.2-.4-.2-.4-1.1.3-.6.7-.5.2 1.2Zm-10-17.2 1.2 1h1l1.4 1 1 .2.7.5 2 .3-.6 1.3-.2 1.4-.3.2-.7-.1-.3.3v.4l-1.1 1.3v.9l.3.3.6-.3.4.7v.6l.4.7-.5.7.4 1.6.9.4-.2.6-1.3 1-3.3-.6-2.5.7-.4 1.3-1.7.2-1.8-.9-.8.4-2.9-.9-.5-.6.9-1.2.2-4.3-1.7-2.2-1.3-1.2-2.5-.8-.1-1.1 1.8-.4 2.8.5.3-.3-.4-2 1.3.7 4-1.7.5-1.8 1.1-.4.2.6.9.2.8.8Zm-94.9 88.5-.5.6h-.6l-.3-.4h-.4l-.6.3-.4-.1.8-2-.7-1.3-.1-1 .7-1.2 1.6.6 1.7 1.3.2.5-1.4 2.7ZM331.4 51.2l-.2 2.4 2.4 1.7-1.4 2v.3l1.9 3-1.1 2.3 1.5 2.1-.6 1.7v.3l2.3 1.7-.5 1-5 4.7-3.1.2-3 1-2.5.4-1-1.3-1.5-.8.4-2.5-.8-2.2.7-1.4 1.5-1.6 3.8-3 1.1-.5.1-.2-.3-1.4-2.3-1.3-.5-.9-.2-4.5-4.6-3.3.6-.4 1.7 1.5 2.3-.1 2 .7 1.7-1.5.9-2 2.3-1 1.9 1-.5 1.9Zm-41.8 45.2.4-.3 1.4-3.3 2.2-.9 1.1.1.2.6-.4 2-.3.6h-.7l-.3.3.2 1.8-1.5-1.2-1.7.4-.6-.1Zm288.3 159.4 1.3 2 .3.2.2-.3v-.8l.3.2.4 1.6 1.3.6 1.2.2 1.1-.8.5.2-.8 2.4h-1.4l-.4.9v.7l-1.5 2.7-1 .6-.7-.6.8-1.3-.5-1.4-1.8-.8v-.4l1.2-.8.3-1.6-.2-1.3-.6-1.2-.1-.5-2-2.4-.6-1 1 1 1.3.5.4 1.4Zm-2.7 9.3.4.9h.4l1-.6.3.6v.6l-1.7 2.4-.8.8-.1.3.3.6-1 .1-1.5 1-1.3 3.3-2 1.5h-1.4l-1.2-.7-1.7-.2-.2-.4.8-1.5 2-2 1.1-.3 2.7-1.9 1.1-1.1.7-1.5.7-.5.3-1.2.8-.7.3.5ZM431.8 143.8v2.1h-1.2l-3.2-.6-1-1-2.4-.1-5.2-2.5.6-1.5 1.5-1.1 1.2.5 1.7 1.2 1 .3.6 1 1.3.3 1.4.8 3.7.6Z"/><path fill="#efc026" fill-rule="nonzero" d="m299.3 105.2-.2.6v.3l.8.4h.7v.5l-.6.3-1.1-.3-.4.1-.3.7h-.6l-.5-.2-.9.7h-.7l-.6-.4-.5-.8-.3-.2-.4.2v-.4l1.1-1.1v-.4h.7l.4-.3h1.3l.5-.4 1.6.7Zm-136.6 66.4-1.2.4-.4.8-1.1 1.2-.3 1.2-.5 1 .2.4h.7l.2.7.4.4v1.5l1 1 2.2-.2.9.2 1.1 1.4.3.1 2.8-.3.2.2-.6 1.3-.1 1.2.3 1.3.6.6-.8.8v.4l.6.3.5.9-.3-.3h-.4l-.4.4h-3.2l-.3.3v1l.2.3.8.2-1.2.3-.2.2v1.2l.8.8.2.8-.7 4.7-.7-.6.9-1.3v-.5l-1.6-.8-1 .2h-.7l-.8.4-1.1-.2-1-1.7-.8-.6-.6-.8-1.1-.8-.6.1-1.4-.9-.7.2-1.2-.2-.4-.6-2-1.1.5-.4v-.7l.2-.4.9-.2 1.3-2v-.4l-.5-.2.2-1-.3-1.4.3-.5-.2-1.5-.7-1 .1-.4h.6l.4-.6-.4-1 1-.1 1.2-1.2.6-.1.2-.3.3-1.9.8-.6h1l.2-.4h1.3l2-1.1.7-.8.6.4.2.3Zm335.9-71.4 3.1.9 2 1.4.6 2 .3.2h2.5l1.6-.9 2.2-.5-.7 1.4-.7.9-.5 2.3-1 1.8-1.9-.4-1.6.8-.1.3.4 1.7-.2 2.2h-.7l-.3.6-.6-.6h-.4l-.6 1.1-2.5.8-.2.4.2.7h-1l-.8-.7-.4.1-1.1 1.4-1.8 1.1-1.4 1.3-2.3.5-1.2 1-.9.2.2-.5-.2-.6 1.2-1.2v-.4l-.9-1-.3-.1-1.5.7-1.9 1.4-1 1.3h-1.6l-1 1v.4l.9 1.3 1.4.4.2 1 1.3.5 2-1.3 1.4.6 1 .1.1.5-2.3.7-.7 1-1.7 1-.9 1.3v.4l1.8 1 .7 1.9 2.2 3v1.2l-.9.4-.1.4.4 1 1 .6-.7 2.5-1 .3-2.5 4.3-1.5 2.1-4.6 3.1-1.9.2-1 .7-.4-.4h-.3l-1 .8-2.2.9-1.8.2-.7 2h-.6l-.3-1 .3-.6-.1-.4-2.3-.5-.9.3-1.5-.4-.6-.6.2-.8-.2-.4-1.5-.3-.8-.6h-.3l-1.4 1-3 .1-1.8.8-.2.2.2 1.7h-.4l-.2-.9-.3-.2-1.1.5-1.7-.8.4-1.3-.2-.3-1-.3-.3-1.5-.3-.2-1.5.3.2-1.7 1.6-1.6v-3l-.8-.5-.6-1-.2-.2-1 .2-1.3-.2.3-.8-.8-1.1h-.3l-1.1.7-1.5-.5-2 1.2-1.4 1.3-1.2.2-.8-.4-2.3-.4-1 .5-.7.9v-.8l-.4-.2-1 .3-3.8-1-1.3-.7-1.3-.4-.7-1-.8-.2-1.7-1.2-1.4-.5-.8.4-3.8-2.3-.3-1.6.8.1.4-.2v-1l-.7-1 .2-1.7-1.8-2.2-2.8-.8-.5-1.3-1.3-1-.2-.5-.4-2-1-.5h-.4l-.4-1.4.4-.3-.1-.6 1.3-.8 1.1-.3 1.8.3.2-.2.6-1.1 2-.2.7-.9 2.7-1.2.3-.6-.1-1 1-.4.1-.4-1.4-3.3 3-.7 1-.5 1.3-3.7 3.3.6 1-1.1.1-2 1.4-.3 1.2-1.4h.3l.5 1.4 1.5 1.2 2.3.8 1 1.5-.6 2.4.6 1.2 4.4.7 2 1.3 1 .2.8 1.8 1 1.3h2l3.5.5 2.3-.2 1.6.2 2.5 1.2h2l1 .6 2-1 2.7-.7h2.6l2-.8 1.3-1.1 1.2-.7v-.3l-.7-1.4.7-1 2.7.5 1.7-1 2.6-.9 1.3-1.4 1.1-.5 2.4-.3 1.2.2.4-.2.1-1-1.5-1.5-1.5-.7-1.4.7-1.6-.3h-1l-.3-.5 1.8-3.5 2 .7 2.4-1.4.1-1.1 1.5-2.3 1-1v-1.3l-.7-.6 1-.8 2-.5h2.1l2.5.7 1.3.8 2.2 4.5.7 2.3Zm-29.2 59.5-1.3.8-1-.4-.1-1.2.7-.7 1.7-.5h.8l.2.4-.6.8-.4.8ZM165.7 289.2l-2.1 1.2-.4 2.1h-.4l-1.9-.7-1.9-1.6-2-1.2-.5-1.3.5-1.4-.9-1.5-.2-3.6.7-2 1.8-1.6-.2-.4-2.1-.6 1.4-1.7.5-3 1.6.5.3-.2.9-4.2-.1-.3-1.2-.5-.4.2-.5 2.3-.5-.2 1-6.3.8-1.5-.5-1.9v-1.9l.6-.2 2.2-6.1.8-2.8-.5-2.9.5-1.5-.2-2.3 1-2.2 1.4-11.2-.5-5.2.7-.4.3-.6.6.8.2 1.2.8.8-.5 1.7.9 2 .6 2.4.4.2 1-.2-.5 1.7-1.7.8-.2.3.1 2.9-.3.5.4.8-1.1 1-1.2 1.8-.6 1.7.2 1.8-1 1.8.7 3.5.4.4v1.5l-1 1.8v1.7l-1.2 1.3v1.9l.5 1.8-1 .7-.9 3.8.3 2.4-.7.6.4 2.4.7.7-.4.7v.4l.7.3.2.5-.7.6.2 1.2-.6 2.7-.9 1.8.2 1.3-.5 1.2-1.4 1.1.2 2.5.6.8h1.1v1.5l.7 1.4 4.3.2Zm1.4 1v5l.3.2h2.4l-.3.6-1.3.6-1.7-.2-1.3-.8-1.7-.3-3.8-2.5-1.6-1.8 2.8 1.7 2.2.8h.3l.8-1.1.6-1.6 1.4-.8.9.2Z"/><path fill="#efc026" fill-rule="nonzero" d="m418.5 115.8-2.6 1.2-.7.8-2 .2-.8 1.3-1.6-.2-1.3.4-1.7 1 .1.5-.3.3-3 .3-2-.7-1.6.2v-.6l1.6.3.7-.6 1.4.1 2.1-1.4v-.4l-2-1.1-1.3.4-.8-.5 1.2-1-.1-.5-.3-.1.2-.6 1-.2 2.7.7.3-.2.2-1.1.8-.4 2.2.8.8-.2 5.1.3.8.7.9.3Zm45.9 52 .4 1-.2 1.9-2.7 1.2-.2.4.5.7-1.4.2-1.4.6-1.2-.2-1.4-2.5-.3-2 1-1.2 2-.3 1.4.3 1.4.7.3-.1.7-1 1.1.3ZM321 101.7l-.8 1.2-1.8-.6-.5.2-.5.5-2.4.5-.3.5-1.2.2-1.3-.7-.1-.6.2-.5 1.3-.2 1.2-1.3.5.2.5-.2 1 .6 1-.4.7.2 1.1-.2 1.4.6ZM496.8 125h.7l.6-.9 1.8-.2.2-.2 1.2 1.9.4 1.2v2.1l-.5.9-1.5.4-1.3.7-1.2.2-.1-.8.2-1.5-.6-1.8 1-.3v-.4l-.9-1.3ZM323.3 59.9l-2.7.8-1.6 2 .2 1.7-6 4.5-1.2 3.9 1.2 1.8 1.5 1.4-1.4 2.5-1.8.8-.7 4-.9 2-1.8-.2-.3.2-.9 1.7h-1.5l-.5-2-1.5-2.7-1.2-3.4.7-1.3 1.4-1.8.6-3-1.1-1.5V68l1-2.3 1.7-.1.6-1.1-.6-1 2.6-3.9 2.7-5h1.5l.3-.2.4-1.4 3 .4.3-.2.2-1.8h.7l4.7 3.3v4.1l.4 1.1Zm-18.9 26.9-.8 1.4-1.4-1-.1-.7 2-.6.3.9Zm-3-2-.3.5-.6-.1-1.2 1.7.4 1.1-.8.3-1-.3-.7-1.1v-2.3l.6-1.1 1.4-.2.7-.7 1-.5v.7l-.6 1 .2.7.9.3Zm3.6 19.8-.3-.2-.9-.1-1.2.4h-1.5l-.4.3-.6-.4-.6.1-1.8-.6-.6.5h-1l.1-1.3.8-1.4-.2-.4-2.3-.4-.6-.5v-.8l-.3-.6.2-1.5-.3-2 1-.1.4-.9.4-2.1-.2-.9.2-.2h1.1l.2.2.4.1 1.2-1.1-.4-2 1 .1.9-.2.2.8 1.5.5v.6l.4.2 1.6-.4 1-.6 1.7.8.7.7.3 1-.4.4v.4l.7.7.4 1-.1 1 .5 1.1h-1l-.4.3-3 1.5-.2.3.5 1.5 1.8 1.5-.5.8-.5.2-.2.3.3 1.4Z"/><path fill="#efc026" fill-rule="nonzero" d="m464.4 167.3-1.2-.5h-.3l-.6 1-1-.3.5-.7v-1.5l-1.3-1.6-.1-1.7-1.3-1.5-1.5-.2-.5.6-.8.1-.6-.3-1.5.9v-1.1l.4-1.8-.2-.4h-.9v-.9l-.7-.6 1.3-1.3.3.3h.9l.2-.2-.2-1.8.5-.1.9 1.2.7 1.6.3.1h1.9l.4 1.2-.9.4-.5.6.1.4 2 1 2.4 3.5 1.3 1.2.4 1.1-.4 1.3Zm23.3-14.7-.5 1-.6-1-.1-1.2 1-1.6 1-1.1.5.2-1.3 3.7Zm-308.5 22 .2-.8.8-.2-.1.8-.9.2ZM345.5 118l2.5.9 2-.3 1.5.2 2-1 1.7-.2 1.5 1 .2.5-.1.8.1.3 1.6.7-.8.5-.2.2.6 2.2-.3.8.7 1.3-.3.1-.6-.5-2-.2-.8.3-2.8.3-1.9.7h-1.3l-1-.3-1.7.5-.5-.3-.4.2v1l-.7.5-.3-.4.5-1h-1.2l-1.3-.3-1.4 1-2.4.3-1.4-1-1.8-.1-.6.8-1 .2-1.5-1h-1.8l-1-1.7-1.1-1 .7-1.4v-.3l-1-.7 1.7-1.7h2.5l.9-1.5 3 .3 2.2-1.4 1.9-.5 2.7-.1 2.7 1.3Zm-16.4.9-1.2.8-.3-.6 1-1.7-.5-.6 1.1-.4 1.2.2.4.8 1.2.5-2 .2-.9.8Zm91.3 62.2-1.2.3-.7-1.1-.3-2.4.7-2.3.8.7 1.6 2.9-.2 1.5-.7.4Zm-91-98.5.6.4.1 1.2.5 1.2-2.4 1.2-1.5-1.1-.9-.2-.4-.6-1.7.2-2.8-.1-1.7.6v-1.3l.8-1.5 1.4-.6 1.4 1.7h1.3l.3-.2.3-1.7 1.2-.4 2 1.2h1.5Zm-1.6 4.2.1.8-1.2.7-.5 1.4-1.7.8h-1.4l-.4-.8-.8-.2v-1.3l-2.5-.7-.2-1.6 1.6-.6 2.8.1 1.5-.2.3.5.8.1 1.6 1Z"/><path fill="#efc026" fill-rule="nonzero" d="m451.4 172.3-.9 2.6.2 1.4.2.2h1l.6 1.4.3 1.6 1 1 1 .2.7.7-.3.4-.8.1-.2-.8-1.3-.7-.4.1-.4-.4-.4-.9-1.7-1.7-.5.2.7-2.6 1.2-2.8Zm.3-.8-.6-1.5-.2-1.7-1.4-2.1.5-.3.6-1.8-2.4-3.6.6-.4.7-1.7 1.1-.2 1.8-1 .5.4v1l.3.2h.8l-.3 1.6v1.6l.4.2 1.6-1 .6.4 1-.1.5-.6h1l1.1 1.3.1 1.8 1.3 1.4v1.3l-.4.6-1.5-.2-2.4.4-1 1.4.2 1.8-1-.6H454l.2-1-.3-.3h-1.5l-.2.2-.2 1.9-.3.6Zm-92.6-45.6-.8-1.4.2-.7-.4-2 .6-.3.2.5 1 1 1.3.3.7-.1 2-1.4.4-.1.2.3-.4.8v.4l1.1 1h.5l.5 1.2 1.7.5 1.3 1 2.5.4 2.6-.6.4-.4 1.4-.4 1.2-1h1l.8-.3 1 .1 2 1 1.3.2 1.8 1.7 1.3.2.1 1.3-1.1 3.7v.4h.5l-.5 1.1.5 1.5.1 1.1.2.2 1.1.3.1.9-1.4 1.6v.3l1.4 2 1.6.9v1.4l.9.5v.4l-2.2 1-.7 2-6.6-1.2-.6-2.1-1-.5-1.5.4-1.7.8-1.8-.5-1.7-1.4-1.7-.5-2.2-4.1-.4-.1-.8.2-1-.5h-.3l-.4.5-.7-.6v-1l-.5-.2.2-1.2-.9-1.4-2-1.1-1.1-1.6.3-1.3.9-.9-.2-1.1-1.1-.8-1.2-2.3Zm2.5-3.3h-.2l-.8-1.4h-.6l-.4-.5h-.5l-.7-.6-1-.4v-.7l-.1-.5 1.8-.3.7.7-.1.6.7.5-.4.4v.4l1.4.8.2 1Zm-45-7h.5l.6.6-.2 1.2.3 1 .7.5-1.2 1.8-.2-.4-.8-.6-.1-.8.3-1.9-.3-1 .4-.4ZM167.5 289l-1.5-.4-4-.3-.5-1.1v-1.6l-.2-.3-1 .1-.4-.6-.2-2 1.3-1 .5-1.4-.1-1.2.9-1.8.6-2.7-.3-1.2.6-.3.2-.3-.2-.8-.7-.5.4-.6v-.3l-.8-.8-.3-2 .7-.7-.3-2.4.8-3.6 1-.7.1-.3-.5-1.9v-1.5l1.2-1.2v-1.8l1-2v-1.7l-.5-.4-.7-3 1-1.9-.2-1.9.7-1.6 1-1.7 1.2-1v-.4l-.4-.5.3-.6v-2.9l1.8-1 .6-1.8-.2-.5 1.3-1.3 2 .4.9 1.2h.4l.6-1.4 1.7.1 3.3 3.2 1.5.4 2 1.3 1.7.6.2.6-1.7 2.6.2.4 3.6.8 1.4-.3 1.7-1.4.3-1.7.6-.2.7.9v1.2l-2.5 1.7-2 1.8-2.3 2.6-.9 3.4v1.9l-.3.4-.3 2.3 2.1 1.7-.1 1.4 1 .8-.1.7-1.6 2.4-2.3 1-3.3.4-1.9-.2-.2.3.3 1.1-.3 1.4.2 1-.8.5-1.6.3-1.5-.7-1 .5.3 2.5 1.1.6 1-.5.2.5-1.3.7-1.4 1.2-.6 3.1-1.6.1-1.4 1.2-.4 2 1.7 1.5 1.5.4-.5 1.5-1.9 1.2-1.1 2.6-1.5.8-.8 1.1.5 2.6.3.9Zm5 6.7h-1.3l-1-.7-2.5-.1v-4l1 2.1 2.3 1.4 2 .6-.5.7ZM475.4 238h.2l.2-.4-.4-1 .6.8h.4l.2-.2-.1-1-1.3-2.5.7-2.2-.1-1 .2-.5.2.7h.3l.7-1.2 1.3-.6.8-.7 1.2-.6.7-.2.6.2 1.3-.6 1-.2.7-.6h1l1.8-.5 1-.8.4-1 1-.8.2-1.8.9-1 .5 1 .3.1.8-.3.1-.4-.4-.7.3-.4.5.2.4-.2.2-1.2 1.3-1.4.8-.3.2-.4.4.2.3-.5 1.3-.4 1.1.6 1 1 2.2.3.3-.3-.4-.8.7-1.2.7-.4v-.6l.5-.9.9-.5.9.2 1.4-.3.2-.3v-.9l-.6-.5 1 .4 1 .7 1.4.4.5-.1 1 .5 1-.5.6.1.4-.2.5.6-.9 1.3h-.4l-.2.4v.6l-1 1.6.1.7 1.5 1 1.4.6 2 1.7 1.4.4.3.6 1.8.6 1.2-.8 1.4-4-.2-2.4.2-1.2.3-.6-.2-.5.7-2.2.4-.3.3.5v1l.6.3.1.7.5.8.1 1.6.6 1.4h.4l.9-.5 1.1 1.2-.1.7.3 1.5.3.9.5.3.4 1.4-.1 1 .5 1.2 4 2.5v.5l1 1.1.6 2h.4l.5-.2.5.6h.4l.3 1.6 3.3 3.2.5 1.3-.1 2.2.7 1.5v1.5l-.8 2.5v1l-.3 1.4-.7 1.6-1.3 1-1.1 2.4-1.6 4-.2 2-.7.5h-1.9l-1.6.9-1.6 1.5-2.1-1.1.2-.8-.4-.3-1 .4-1.3 1.3-4.8-1.5-1-1-.8-2.6-1-.8-1.2-.2.4-.9-.4-1.4h-.5l-.7 1.2-.6.1.4-.5.3-1 .6-1-.1-1.5-.5-.1-1.3 1.5-1 .7-.6 1.3-1-.5v-1l-1-1.4-.7-.6.1-.2v-.4l-2.2-1.2h-1.3l-1.7-1-3.1.2-4 1.3h-1.8l-1.7.9-1.4.4-1 1.7-2.4.3-1.6-.4-2.3.3-1.1 1h-.5l-1.7 1h-2.2l-2.5-1.5v-.7l.8-.3.4-.6.1-2-.2-1.1-.9-2-.2-1v-1.1l-.7-1.2-.2-.6-.6-.7-.2-1.4-1.3-1Zm53.4 27 1.8.7 2.2-.7h.7l.1 2.2-.5.7-.1 1h-.7l-1 1.2-1.2-.1-1-1.6-.2-1.4-1-1.7v-.5l.9.2Zm-109-125.7-.8.7-.7 1.7.1.4 5.4 2.6 2.3.3 1.1.9 3.3.6h1.5l.3-.2.2-.8-.2-1v-.7l.6-.2.3 1.7 1.6.7 1.2-.3h2.7l.3-.2.1-1.1-.3-.5 1-.2 1.4-1.3 1.8-1 1.3.3 1.2-.7.6.8-.5.6.2.4 1.6.3.1.3-.5.5v.8l-1-.2-2.1 1.3-.1 1.2-.9 1.4-.1 1-.6 1.2-1.1-.4-.3.3-.1 1.7-.4.8.1.5-.3.2-.8-2.5-.8-.2-.2.2-.2.7-.4-.5.3-.7.8-.2.8-1.5-.1-.4-1.1-.3-2.9-.2-.1-1.1-.2-.3h-.8l-1.3-.8-.4.1-.6 1.3v.3l1 .7-.7.5-.5.7.2.5.8.4-.2 1 .5 1.2.3 1.4-.2.4-3 .3-.3.3.1 1.2-.8 1-2.5 1.2-1.9 2-2.9 2.2-.1 1-3.2 1.1-.5 1.5.4 3.6-.8 1.7v2.6l-.8.2-.7 1.3.2.5-1.1.4-.7 1.2-.4.3-1.5-1.3-1.4-4-1.5-2.5-.6-3.3-1.6-2.4-1.2-5.5v-2.2l-.3-1.7-.4-.2-2.3 1-1-.2-2-1.9.5-.4.1-.4-.5-.7-1.8-1.4.8-1h3.6l.3-.3-.4-1.5-1-1-.1-1.3-1-.8 1.6-1.6h2l1.8-2 1-1.8 1.7-1.8v-1.4l1.4-1v-.4l-1.3-.9-.5-1.2-.6-1.5.6-.6 2.4.4 2-.2 1.6-1.5 1.5 2-.1 1.4.6 1v.6l-.8-.2-.4.3.5 2.1 1.8 1.3 2 1.3Z"/><path fill="#efc026" fill-rule="nonzero" d="m363.1 118.2.9.2 1.3-1.2 1.5 2.2 1 .3h-.9l-.2.2-.5 2.1-.7.7v.7l-.9-.7.5-.8v-.3l-.5-.7-1 .1-1.6 1.2v-1l-1.3-.9.3-.4v-.4l-.7-.5.2-.3v-.4l-.8-.6 1.3.5h1.1l.3-.6-.6-.9h.3l1 1.5Zm-3.7 3.3.4.3h.5l.4.8-.5-.2-.8-.9Zm150.2 72.3.5 2.8 1.9 1.2.3-.1 1.4-1.8 1.8-.9h1.3l2.7 1.1 1.7.4v10.2l-1.2-1-1.7-.4-.6.5h-1.5l.4-.8 1-.4.2-.4-.5-1.8-.8-1.5-3.4-1.5-1.4-.1-2.5-1.6h-.3l-.5.8h-.3l-.4-1.2-.8-.5 1.2-.4h1.2l.2-.4v-.5l-.4-.2h-2.3l-.8-1-1.4-.2-.3-.4 1.8-.4.9-.5 2.5.6.1.4Zm1 8.4-.4.6-.1-.6.4-.7.1.7Zm-7.1-4.9.2.5-.8-.4-3.2-.1.2-.4h1.9l1.7.4Zm-4.3-5.2-.4-2 .4-1.3.2.6.8.1.2.5v1.2l-.6-.2-.4.2-.2.9Zm-1.3 5.5-.4.3-.8-.3-.2-.2 1.2-.1.2.3Zm-11.9-6-.1 1.3 1.5 1.5h.3l.9-.7 1.9-.4-.6.8-1.5.6-.1.4 1.5 2-.2.8 1 1.1-1.6.7-.2-.2v-.9l-1-.8.1-1.5-.4-.3-1.2.6v.2l.1 4.2-.7.1-.5-.3.4-1.5-.3-1.6-.2-.2h-.6l-.4-.9.7-1 .2-1.4 1-2.6Zm4.8 8 .3.3v.8l-.6.4-.4-.4.7-1.1Zm.3-6.4h.2v.1l-.2-.1Zm-5-2 .2-.1 1.3-1 1.2.4 2.1.3 2-.1 1.6-1.2-1.1 1.5-1.2.2-1.6-.3h-2.8l-1.7.3Zm6 17.9.8-1.3 1.3-.5.1.4-1 1.1-1.2.3Zm-1.6-3.1-.1.3-2.4.4-2-.2v-.1l1-.3 1.2.5 1.2-.1 1.1-.5Zm-3.5 2.9h-.4l-1.6-.8.7-.1 1.3.9Zm-4.5-3 .6.4.9-.2.1.3-3.1.5.2-.5h.8l.5-.5Zm-3.1-8-.3-.2-1.7.7-.7-1h-1.1l-.9-.6-2 .6-.7-.8h-2.2l-.2-2-1-.7-.7-1.4-.2-1.4.2-1.4.6-.7.3.7 1.4 1 1-.3h1.3l.9-.7.7-.2 1.5.5 1.6-.3 1-2.5.7-.6.5-1.8 2.8.2-.8 1.2v.4l1.2 1.5-.2.9 1.5 1.1-1.6.3-.6 1.3v1.3l-1.6 1.3v1.7l-.7 1.9Zm-12.9 5.5.2.2 3.3.1.5-.7 2.8.8.8 1.1 2.5.4 1.4.6-1.2.4-2-.6-3.2-.1-3.5-1h-1.2l-.7.1-3-.7-.4-.7h-1l.7-1.1h1.9l2 .8.1.4Zm-4.8-2h-1.5l-1.4-1.3-2.1-1.3-2-2.4-2-3.6-1.6-1.4-1-2.7-1.6-1.2-.9-1.4-1.3-1-1.7-1.8v-.4l3.2.3 1.5 1.6 2.2 1.8 1.5 1.9 1.9.1 1.3 1 1 1.6 1 .6-.4 1.2v.3l1 .6h.6l.2 1.2.6 1 1.4.2.7.9-.4 2-.2 2.2Zm-130.1-92.2.8-1.7 1.3.2.4-.2v-1l-.6-.5-.2-.8-.6-.4v-.8l-.7-.6-.8-.1-1.3-.7-1.2.2-.4.3h-.6l-.6.6-1.7.5-.8-.5-2-.3-.7.3-.1-.4-.8-.5.3-.6.9-.7-.3-.8 1.3-1.6 1-.4v-.8l-.6-1.6.5-.1 1-.5 1.1-.1 1.7.2 2 .5 1.3.1.6.3.6-.3.6.5 1.5-.1.6.2.3-.2v-1l.5-.3 2-.1.5-.5 2-.1.8 1-.3.5.1.7.3.2h1.2l.6 1.5 2.2.7 1.2-.2 1.2 1h1l2.2.7v.3l-.7 1 .4 1.4-.2.5-1.6.2-1 .6v1l-1.3.1-1 .7-1.7.2-1.4.8-.2.2.2 1.6.8.5h1.4v.2l-1.8.3-2.1 1.1-.6-.2.2-.8-.1-.3-1.5-.5 1.6-.7.1-.4-.6-.6-2.4-.4-.1-.6-.3-.2-1.8.4-.6 1.1-1.1 1.4-.7-.3-1.2-.3Z"/><path fill="#5b5b5b" fill-opacity=".1" fill-rule="nonzero" d="m439 154.9-.4-1.3-1-1.2h-1.5l-.3.3.2.6-.4.7-.4-.3-.5.3-.8-.3-.3-1.3-.5-1.3.2-1-.1-.4-.7-.3.2-.3 1-.6v-.4l-1-.8.3-.8 1 .6h.8v1.1l.3.3 3.8.4-.6 1-.8.3-.5 1v.3l1 1 .5-.2.2-1 .8 2.6v.8h-.2l-.3.2ZM288.9 96.8l1.3.2 1.4-.4 1.8 1.4-.1 1.1-.5.3-.2.8-1.1-.8-1 .1-1.8-1.8-.8-.2-.1-.3 1.1-.4ZM283.6 166.7v.6l.1.8 1 1.1v.8l.3.3 1.6.3v.9l-.2.3-.8.1-.4.8-.4.2-2.2-.2-.6.3h-3.6l-.3.3.1 1.8-.8-.3-.8.1-.6.4-1.6-1.1v-.8l.4-.7v-.6l1.3-1.3.2-1.2.3-.3.9.2.6-.3.4-.5 1.2-.7.3-.6 1.5-.7.8-.2.4.4.9-.2Z"/><path fill="#efc026" fill-rule="nonzero" d="m331 113.1-.6.6-.6 1.5.3.9-1-.1-1.7.6-.2 1-1.2.1-1.4-.7-1.3.6h-1v-1.2l-.7-.6v-.6l.9-1v-.5l-.8-.8v-.6l.6.7.6-.1 1.3.3 2.5.1 1-.5 1.8-.5 1.5.8ZM312 110.1l1.4.3h1.2l1 .5-.3.5v.3l.8.7-.2.7-1.2.7-.3 1-1.1-.7-.6-.8-1.4-1.2-1.1-1.5.1-.4.4.3h.3l.3-.4h.7Z"/><path fill="#5b5b5b" fill-opacity=".1" fill-rule="nonzero" d="m333.6 199-.8-2 .8-.1.4-.8h.5l.4 1.3-1.3 1.6ZM289.1 172.2v.5l.4 1-.3.5.1.6-1.2 1.4-.4 1.2v3.6l-1 .2-.3-1v-3.8l-.3-.5-.1-1-1-1v-.5l.7-.3.3-.6.8-.3.9-.9h.4l1 .9Z"/><path fill="#efc026" fill-rule="nonzero" d="m438 143.9.5.5v.8l-2.6-.1-1 .3-1.4-.6 1-1.4.8-.4 1 .4h1l.7.5Z"/><path fill="#5b5b5b" fill-opacity=".1" fill-rule="nonzero" d="m153.4 161.1-.5.2-1.5-.7.5-.1 1.4.2.8.4h-.7ZM325.8 222.3l1.5 2.7 1.9 2 .7.2.5 1.6 1.4.4.7.5-2 1.1-1.6 1.4-1 1.8-1 .3-.4 1.3-.9.3h-1.2l-.8-.5-1-.2-.7.4-.6 1-1.5 1.2-1 .2-.2-.4.1-1.3-1-1.6-.4-.3v-4.8h1.4l.3-.3v-6l3.6-.6.5.6h.3l1-.6 1.4-.4ZM174.8 185.2l2.1.5.4-.3 3-1 .8-.7v-.4h.3l.2.2-.2.6.2.4.4.2.3.5-.4.6-.3 1.4.6 1.8 1.1 1h1l2.1-1 2.2.1.4-.5-.2-.6h1.3l1.6.6.7-.4.6.5.8-.1.8-.7.5-1.3 1-1.4h.2l1.3 3.7.9.4v.8l-1.2 1.3v.4l.7.6 2.7.3v1.5l.6.2 1.1-1 4.7 1.5.7.8-.3.9.4.3 1.9-.5 3.2.9h2.6l2.4 1.3 2.2 2 1.3.4h1.4l.5.5.8 3-.7 2.7-3.2 3.5-1 2-1.2 1.3-.5.2-.5 1.3.1 3.2-.6 3.8-.5.7-.3 2.3-1.7 2.3-.2 1.7-1.3.7-.5 1h-1.7l-2.6.7-1.2.8-2 .5-2 1.5-1.5 2-.2 1.3.2 1-.2 1.8-.4.8-1.2 1-1.9 3.3-2.5 2.2-.9 1.9-.8.7-.2-.5.6-.8v-.3l-1-1.4-3-2.2h-.7l-1.7-1.3h-.5l3.6-3.7 2.5-1.8.2-1.7-1-1.2h-.6l.4-1.5v-1l-.7-.5-1.2.2-.3-2.1-.3-.7-1.3-.6-.8.3-1.5-.2v-2.2l-.4-.9.5-.4-.1-1 .5-.7.2-1.3-.4-1.2-1-.6v-.6l.1-1-.2-.2-3-.1-.5-1.5.4-.3v-.7l-.4-.6-.2-1.2-1-.5h-1l-.7-.5-1.1-.3-.8-.7-1.8-.3-1.7-1.4.1-3-.3-.3-2.4.4-2.3 1.2-.4.5-2-.1-1 .2h-.4V208l-.4-.2-1.2.9h-1.4l-.6-.9-1-.2.2-.7-1-1-.5-1.3.4-.4v-.5l.9-.4v-1.1l.4-.6v-.7l1.8-1 1.3-.4.3-.2h1.4l.3-.2.8-5.4-.3-1-.7-.7v-1l1.3-.2v-.7l-.2-.2-.7-.2v-.5h3l.6-.5.5 1.2.5.1.8.8h1.5l.5-.6 1.9-.7.3-.7 1.1-.4.1-.3-.3-.6-1.2-.1v-2.2ZM152.1 150.7l-.3-.7-.6-.6.3-.7.6 1.3v.7ZM151.6 145.7l-1.3.1v-.1h1.3ZM332.4 86.2l.2.5.4.1.8-.2 1.4.4.1.9-.3.8 1 1.6.7.4.1.5 1.1.4.3.3-.4.3h-1.2l-.5.2-.2.4.7 1.8-1.3.2-.6.7v.8h-1.9l-.3-.4-.3-.1-.6.3-.6-.2-1.3-.1-1.8-.5-1.8-.2h-1.3l-1 .6h-.5l-.1-.7-.4-.8 1-.6v-1l-.5-1-.1-.6h1.5l1.8-.9.5-1.3 1.3-.7.2-.3-.2-.8 2.6-1.3 1.5.5ZM132.9 164.5l.1-3h.5l.5-1 .2.2-.3 1 .1.3-.2 1.5-.9 1ZM334.6 194.1l.5.7-.1.7h-1l-.8 1h-.5l.3-.9.1-.9.3-.2h.5l.7-.4Z"/><path fill="#efc026" fill-rule="nonzero" d="m316 110.3.3-.3v-.4l-.8-1 1-.5.8.1.8.7.4.8.9.4.2 1 1 .5.6-.2.1.5-.3.6.1.7.7.8-.6.5-.2 1-.8.1.1-.4-.3-.3-1.4-1.1h-.6l-.3.5-1.4-.9.4-1-.8-1 .4-.8-.3-.3Z"/><path fill="#efc026" fill-rule="nonzero" d="m328.2 103.7.4.1 2 2.7-.2 1.8.4 1 .8.5 1-.2.5.2v.2l-.5.3-.4-.1-.4.2-.4 2.2-.6-.1-1.5-.8-2 .5-.8.5h-2.4l-1.2-.4-.6.2-.6-1 .2-.1v-.4l-.8-.2-.4.3-.7-.4-.2-1-1-.4-.3-.6-.5-.6 1-.3 1.8-2.8 1.7-.8 2 .2 1 .4.5-.2 1.2-.2.6-.5h.4v-.2Z"/><path fill="#5b5b5b" fill-opacity=".1" fill-rule="nonzero" d="m259.9 170.8-.2.5v.4l-1.4.4-.7.6-.6-.5-.8-.1-.3-.8-.5-.3 1.6-.3 2.9.1ZM131 168.2l-1.7-.3-.7-.3-.7-.6.2-.7-.2-.4.7-1.2h2l.3-.2-.1-1-1.2-.9.4-.2v-.8h2.6l-.1 3 .2.3 1 .3-1 .7-.2.4v.4l-1.5 1.5Z"/><path fill="#efc026" fill-rule="nonzero" d="m327.9 117.4-.4 1-.3.1-1.8-.2-2 .5-.2.5.9.8-.4.1h-.8l-.8-1h-.4l-.3.7.4 1.3.7.8-.4.2v.4l1.6 1.5v.6l-1.2-.4-.3.4.3.6-.7.2-.2.3.5 1.4h-.7l-1.2-.8-1-2.8-1.4-2v-.4l.6-.9.1-.6.7-.4v-.4l.8-.1.7-.4h.8l.4-.4h1.6l1.2-.5 1.3.7 1.5-.2.3-.3v-.5l.1.2ZM323.5 129.4l.4.2h-.5l.1-.2ZM324.8 129.7h1.7l.1.3h-1.2l-.6-.3Z"/><path fill="#5b5b5b" fill-opacity=".1" fill-rule="nonzero" d="M302.1 188.3v1.4h-2.8l.5-1.5 2.3.1ZM186.4 181.8l-.1 1.3-.9.4-.1.3-.2 1.4.7 1.2.6.1.2.8.7 1h-.8l-.8.4-1.2.4-.2.3h-.6l-1-.7-.5-1.6.3-1.3.5-.8-.4-.8-.5-.3v-.8l-.5-.4h-.8l-.9-1 .4-.5v-.5l1.3-.6v-.4l-.4-.5v-.5l1.2-.8 1 .6.9 1v.7l.3.3h.5l1.3 1.3ZM277.7 79.8l-1.5 2.1v.3l3.4-.2-.3 1.6-1.5 2 .2.5 1.6.1 1.6 3 1.2.4 1.5 3.4 2 .6-.2 1-.7.7-.1.3.5 1-1.2.9h-2.3l-2.7.6-.7-.4h-.4l-1 1-1.4-.2-1.3.8-.4-.2 2.2-2 1.5-.5.2-.3-.2-.2-2.5-.4-.3-.5 1.5-.6.1-.4-.8-1.2.2-1.1 2.3.2.3-.2.3-1.4-1.4-1.7-2-.4-.3-.4.5-1v-.2l-.5-.7h-.4l-.5.6v-1.6l-.9-1.3.6-2.3 1.2-1.9 1.3.2h1.3ZM273.4 89.3l-.6 1.2-1.1-.4h-.8l.2-1-.2-1h1l1.5 1.2Z"/><path fill="#5b5b5b" fill-opacity=".1" fill-rule="nonzero" d="m305.1 188.2-.1.7.5.8 1.6.2-.7 1.7.8 1.2.2 1.3-.3 1-.4.6h-1.2l-.8-.8-.5.1v.5l-1 .2-.6.5-.1.4.5.9-.8.7-2.7-3-1-1.6.5-1 .7-2.3h2.8l.3-.4v-1.8l1.6.2.7-.1ZM263.6 171.1l.4.5.7-.2.7.5.7.1 1.6-.8.4.3.7 1-.3 1 .5.2v.3l.3.5-.3 1 .8 1.7-.7.5v1l-.5-.2-.7.7-.1-.2v-.7l-.6-1-1.3.1-.2-1.3-1.1-1.5h-1.4l-.8.3-1.4 1.5-1.3-1.5-.8-.5-.2-.8-.5-.6.4-.5h.5l1.1-.5.1-1.3 1.9.4.6-.2.8.2ZM255.2 169.2v-.2l1.7-.1.5-.4h.3l.6.3-.7-.2-1.3.6h-1.1ZM258.4 168.9h1.1l-.4.1-.7-.1ZM237.4.5l10 3.2-2.5 1.2-15.5.7-.3.2V6l1 .8 6-.4 5 1.4 3.4-1.2 1.1 1.1-1.6 2.2v.3l.3.1 4.3-1.4 8.2-1.6 4.8.7.8 1.4-6.6 2.7-1 .9-5.3.6-.3.3.3.3 3.4.1-1.7 2.4-1.4 2.6v4.1l1.8 2.1-2.1.2-2.8 1.1v.5l3 1.8.4 2.6-1.6.2-.1.4 1.9 2.5-3.2.2-.3.2.1.3 1.8 1.2-.4.8-2.3.5h-2.3l-.2.5 2 2v1l-3-1.2-1.1.9v.4l2.3.8 2 1.9.6 2.1-2.6.6-3.3-3h-.4v.3l.4 2-1.8 1.5v.2l.2.2 5.9.2-8.3 4.5-4.9 1h-2l-1.7 1.3-2.3 3L222 60l-1.2.2-4.8 1.4-1.4 1.7v2l-.9 1.6L211 69v.3l.6 2-1.5 4.3-2 .2-2.7-2.1h-3.3l-1.4-1.3-1.3-2.6-3.2-3.3-.8-1.7-.2-2.6-2.3-2.4.6-2-1.1-1 1.5-3.1 2.6-1.2.7-1.3.3-2.4-.4-.3-2.8 1.5-1.4.4-1.9-.8v-1.9l.6-1.4h1.3l3.5.8.3-.2v-.3l-4.4-3-1.9.4-1-.6 1.7-2.7v-.4l-1-1.1-3.4-5.8-2-1.3v-1.3l-.2-.3-4.7-2-3.6-.3-8.6.6-2-1-2.4-2 3.8-1 3.4-.2.3-.3-.3-.2-7.2-1-3.6-1.4.2-1 12.4-3.6.8-1.5-.2-.4-4-1.3 1-1.2 5.9-2.7 2.4-.4.2-.3-.6-1.6 3.7-1 5.1-.6 5-.1 2.1 1.3L198 5l3.9 1.5 2.4.4 3.5 1.2h.4l-.2-.4-3.8-2.1.2-1.4 5.5-2.5 5.8.2L218 .4l5.9-.4 13.5.5ZM283 173.4v.4l.7.8.1 2.5.4.7-.3 1.4.1 1 .7 1.4-4.7 2-1.2-.5v-.6l-.7-1.3.4-1.8.7-1.5-.6-4.4h3.3l.6-.2.5.1ZM301.6 126.6l-.7.9v.9l.6.6-.2 1.4-1 .9-.1.2.3 1 1 .3.3.7.6.3v1.2l-2.4 1.7v1.6l-.5.3-.6-3-1-.8-.2-.6-1.3-1-.1-1.3 1-1 .4-1.6-.3-1.9.3-.8 1.7-.7.9.2-.1.7.4.3 1-.5ZM306.7 109.5h.7l-.5.7-.2-.7Z"/><path fill="#efc026" fill-rule="nonzero" d="m307.7 109.5.3-.2 1.2.3.2-.3v-.4l.6-.4.2-.7 1-.5 1.8 1.2 1.4.4.6-.2.7 1-.3.5-.7-.4h-1.1l-1.5-.4h-.8l-.4.4-.4-.3-.5.1-.3 1.2 1.2 1.6 2 1.9-.9-.6-1.5-.6-1.1-1.3v-.4l-.6-.8-.2-.8-.9-.3Z"/><path fill="#5b5b5b" fill-opacity=".1" fill-rule="nonzero" d="m159.4 160.5-.9.2-.6-.4v-.1l1.5.3ZM160.8 160.5l.5-.3.1-.4-.7-.7v-.5l-.2-.3-.6-.2 2.2.3v1.2l-.4.2v.4l.3.5-1.2-.2ZM134 168l-1.1-.9v-.6l2-1.4 1.7.2h.9l.7-.4.9.2.7-.1 1 .3 1.4.9-1.6.6-.8-.3-.6 1-.9.6-.6-.1-.3.3h-.7l-.3.3v.6l-.3.4h-.2l-.2-.4-.5-.2.1-.4-.3-.4-.6-.2h-.4Z"/><path fill="#efc026" fill-rule="nonzero" d="m172.2 160.7-.2.2h-1.9v-.4h1.2l.9.2Z"/><path fill="#5b5b5b" fill-opacity=".1" fill-rule="nonzero" d="M343 136.5v-.4l-.2-.1.2-.8.1.1-.1 1.2ZM184.8 226.4l.5 1-.2 2.3.2.3 1.8.3.7-.3 1 .4.3.4.3 2.3.9.3.6-.3.4.2v.8l-.8 3.6-1.4 1.3-1.3.2-3.1-.6 1.5-2.5-.2-1-2-.8-2-1.3-1.4-.3-2.9-2.8.6-2 .1-.9.7-1.3 2.8-.5h1.5l1.3.8.1.4ZM143.6 177.5l.2-1-.3-.2v-.3h.3l.6.9h.9l.5.3 1-.1 1.7-.8.6-.5 2.3.7 1 .8.2 1.1-.1.2h-.3l-.4.1-.1.5-.5-1 .3-.3-.1-.4-.4-.1-.3-.5-1-.6-.8.2-.5.6-1 .6-.2.6.6.7-.4.4h-.5l-.2-.8h-.9l-.5-.7-1.7-.4ZM544.8 201.3l1.6 1.7v.2l-.2.1-.6-.5-.8-1.5ZM539.9 197.3l.3.2.2.2-.3-.3-.2-.1ZM541.1 198.3l.4.4v.8l-.1-.7-.3-.5ZM536.7 200.9l.4.6 1-.2 1.5-1.2v-1l.7.2v.8l-.5.8-.7.2-.4.5-1.7.8h-.8l-2.1-.9h2.3l.3-.6ZM531.7 204.4l1.5 1.3 1.1 1.7h.9v.6l.1.2.8.2v.4l1.5.6-.8.1-.5-.4-3-.4-2.2-2-1-1.5-2.3-.8-1.6.5-1 .6-.2.3.2 1-1 .5-1-.2h-1.4l-.1-10.5 5.7 2 2 1.6.4 1 2.7 1 .2.6h-1.3l-.2.4.5 1.2ZM258.7 155v-.5l.8-1 .6-2.3 2.3-1.9.4-1.2.1 3.3-1.3.1-.7 1 .3 2.5h-2.5ZM263.7 146.8l.6-1.2 1.2-.2 1.4.2.7-.4h.8v1.6h-4.7Z"/><path fill="#efc026" fill-rule="nonzero" d="m304 106.7 2.3.6-.1.8.2.5-1-.1-1.4.7v1.3l-.2.7.6 1 1.6 1.1.9 1.7 1.9 1.6 1.3.1.2.1-.3.2v.5l2.7 1.4 1.5 1.2-.1.2-.8-.7-1.5-.3-.3.1-.6 1.3v.3l1.1.6-.1.7-.8.2-.8 1.6h-.3v-.2l.7-1.6-1.1-2.2-.8-.3-.6-.9-1-.3-.9-.8-1.2-.2-2.7-2.1-1.1-1-.7-2.3-2.4-.9-.8.3-1.2 1 .2-.5-.2-.3-.8-.2-.3-1.4.4-.5v-.4l-.4-.8.6.3 1-.1.7-.6.3.3h.8l.6-.9 1 .2 1-.4.2-.7.7.2.5-.4 1.3-.3.2.6ZM309.1 124.3l-.4 1.1.2.7-.2.6-1-.6-3-1.1v-.5h2l2.4-.2ZM298.8 118.5l.8 1.1-.2 2.2h-.7l-.6.5-.3-.3v-2.2l-.4-.8h.7l.7-.5Z"/><path fill="#5b5b5b" fill-opacity=".1" fill-rule="nonzero" d="m557 209.8-.4.1-.2-.2h.3l.3.1ZM555.3 207l-.2-.2-.2-.6.4.8ZM554.5 208.3l-1.2-.1-.1-.4.8.2.5.3ZM552 205.2l.7.4-.5-.3-.2-.1ZM347.4 166.8l.8.6 1-.3.5.3h1l1.4.6 1.2 1.2 1 1.4-1 1.3.2 1.2.3.3h1.3l-.3.6 2 2.5 5.6 2h.9l-4.3 4.6-2 .1-1.7 1.2h-1l-.6.6h-1l-.8-.6-1.6.7-.5.7-2.3-.3-2-1.4h-1.3l-.4-.5v-.8l-.2-.3-.7-.2-1-1.8-.8-.5-.3-.6-.9-.9h-.8l.3-.6 1-.2.3-.6v-1.5l.4-1.6.7-.4 1-2.1 1-1 .7-1.7.2-1.2 1.7.3.3-.1.7-1Z"/><path fill="#5b5b5b" fill-opacity=".1" fill-rule="nonzero" d="m353.6 194.3-.8-1.1v-6l1.8-2.3h1.2l1.4-1.2 2.3-.2 4.8-5 2-2.5v-3.3l2-.4.8-.6h.4l-.2 2-.8 2.4-1.8 4-1.4 2.5-3.4 4.2-5.8 4.3-1.9 2-.6 1.2ZM335.9 229.8l-.8-.2-.6.2-1.4-.3-1-.7-1.3-.3-.4-1v-.5l-.2-.2-.7-.2-1.8-1.8-1.3-2.2 2.6.3 2.5-2.5.7-.3.2-.5 1-.7.9-.2.3.7h1.3l1.2.8h.7l.7.6v2l-.4 2.6.3.6-.2.8-.2.2-.4 1.3-1.7 1.5ZM350.4 165.8l2.3 1.6 2.3 2.5.6.4h-.7l-2.4-2.7-1.5-.7h-1.2l-.6-.4-.8.3-1-.7-.3.2-.5 1-1.5-.2-.2-.5.9-3.6.4-.4 1.3-.3.7-.7.8 1.6.4 1.6 1 1Z"/><path fill="#efc026" fill-rule="nonzero" d="m315.6 116-.8-.6.4-1.3.6-.4 1.5 1-.3.4-.5-.2-.9 1.1Z"/><path fill="#5b5b5b" fill-opacity=".1" fill-rule="nonzero" d="m328.8 103.3 1-.2 1 .7h.8l.6.4v.6l.6.6.8 1.7-.8-.1-.5-.3-.3.2-.1.7-.7 1.3-.2-.6v-2l-2.2-3ZM367.6 214.9l.2 2 .5.8-.2.7-.4-.5h-.5l-.3.5.3 1.4-.2.6-.4.6-.2 1.4-3.1 10.2-.8 2-2.6 1-2.1-1-.4-.7-.1-1.7-.6-1.3-.2-1.2.3-1.1.8-.5v-.6l.8-1.3.1-1.2-.7-2-.1-1.5.5-.9.2-1 3.1-.8 2.3-2 .5-1v-.4h.5l1-1.2v-1.1l.4-.4.8 1.1.6 1.1ZM254.9 154.8v-.4l.7-.5.5-1v-.6l.5-1.1.8-1.1.7-.4.5-1.1v-1l.6-1 1.1-.8 1-1.8.9-.7 1.6-.2 1.3-1.2.8-.6 1.5-1.5-.4-2.5.8-2.5 1-1.2 3-1.7 1.7-3h1l1 .7h1.6l2.4.3.5 1 .2 1.2.6 2 .4.4-.2.4-2 .3-1 .7-.8.2-.2.2v1.2l-1.9.7-.7 1-3 .7-2.8 1.3-.3 3.2h-.7l-.6.4-1.4-.2-1.6.3-.5 1.3-.6.2-.7 2.3-2.4 2-.5 2.4-.7.8-.2.5-3.5.4ZM264.2 171.1l-.1-1.7-.7-.6-.3-.8v-1l.5-.3.2-.8 1.7.4.8-.4.7.1.4-.4h6.6l.3-.2.4-1.2-.3-.4-1.6-14.9h2.2l11.3 7.7.5.9 1.7.7v1l.2.3 1.6-.2v3.7l-.9 1-.2 1-3.6.5-.7.6h-2l-.6-.3-1 .3-1.5.7-.4.6-1.3.8-.3.4-.5.3-1-.1-.5.5-.2 1-1.3 1.4v.7l-.5.8v.8l-.6.3-.2-.4-.3-.1-1 .2-.2.4-1.8-.2-.3-.3v-.6l-.4-.3.3-.4v-.3l-1.4-1.6h-.5l-1.4.8-.5-.1-.6-.5-.7.2Z"/><path fill="#efc026" fill-rule="nonzero" d="m318.3 117 .3-.4 2.4-.5.7.5v1l-.3.3h-.8l-.7.4-1 .2-.5-.5-.2-.6.1-.4Z"/><path fill="#5b5b5b" fill-opacity=".1" fill-rule="nonzero" d="m340.4 208.3.5 1.3.1 2-.5 1 .5 1.3v.9l.4.4v.7l.3.3h.6l.3.3.5-.1.2.4.1 2-.6.3-.4.9-.7-.8-.2-1 .4-1-.2-.8-.7-.4h-.5l-1.7-1 .5-1.4.5-.8-.3-1.3.6-2-.6-1.7.6.2.3.3ZM274.2 148.5h-1.8l-.3.3 1.7 15.2.2.3-.2.8h-6.6l-.5.4-.6-.1-.8.3-1.1-.5h-.7l-.3.2-.2 1h-.3l-2-2.2-2-1h-1l-1 .3-.7-.1-.4.2v-.3l.4-.9.2-1.6-.4-2.6.2-.8-.5-1-.8-.7.2-.3h6.5l.2-.3-.3-2.5.3-.6 1.4-.2.3-.2v-4.3h5.2l.3-.2v-2.3l5.4 3.7Z"/><path fill="#efc026" fill-rule="nonzero" d="m335.7 186 .5-.3 1 .3 1.4-.4h1.1l1-.6.6.8 1 2.7-1.8 2.7-1-.2-1.7.6-1 1v.6h-1.6l-1.5.7-.2-1.1.4-.7v-1.3l1-1.5 1.3-1.1-.2-.4-.5-.1.2-1.7Z"/><g fill-rule="nonzero"><path fill="#5b5b5b" fill-opacity=".1" d="m89.2 134.8.1.4 6.5 2.2h4.7l.3-.3v-.4h2.5l2.5 2 .9 1.8 1 .7 1.4.5h.4l1-1.4h1.1l1.1.7 1.4 2.3 1 1 1 2.1 1.4.7 1.5.4-.8 2.5-.2 3.4 1.2 3.3 1 1.3.5 1 .8 1 1.7.4 1 .7 5-1.2 1.3-1 .8-2.8 2.7-.8h2.4l.2.1v.6l-.9 1-.5 1.1.3.5-.5 1.5-.3-.2-.7.1-.7 1-.3-.1-.3.3h-3l-.2.3v.7l-.7.2v.3l1.2 1 .4.5-2.1.2-.8 1.4.1.5-.1.2-1.5-1.4-1-.6-1.4-.5-1 .1-2.1.8-7.2-2.6-2-1.4-2.5-.6-.7-.8-1.8-1-.8-1-.3-.5.5-.4-.1-.3.3-.5v-.7l-1.4-2.5-1.4-1.8-1.7-1.4-.8-1-1.5-.9-.2-.2.2-1-.2-.3-.8-.4-1-.8-.3-1.3-1-.3-1.6-1.7-.2-.7-.9-1.3-.5-1.4-.1-.8-1.2-.8-.7.1-.9-.5-.4.2-.3.7.5 2.6 2.4 2.6.2.5.3.2.3 1 .9 1.1 1 1 .6 1.6 1 1.6v.9l.3.3h.6l1.2 1.6-.6.5-.5-1-1.2-1-2-1.3.2-1.2-.4-1.3-2-1.3h-.3l-1.3-.7-.6-.6h.4l.7-.8v-1.2l-1.3-1.3-1-.5-2.5-5.1 3.3-.4ZM341.9 136.7l.3-.6v.3l-.1.7.3.2.5-.1-.6 2.4-.8-2.2.4-.5v-.2ZM342.5 134.7l.3-.6h.4l.3-.3-.3 1-.4-.2-.3.1ZM357.7 174.3h1l3.4-.6 3.6-1v3l-1.8 2.2h-1.2l-5.4-2-1.7-2 .7-1.2 1.4 1.6ZM586.2 220.2l-.8.3-.1-.1 2-.8v.2l-1.1.4ZM584.4 221.8l.3.2-.2.7-.8.2-.7-.2v-.4l.4-.5.6.2.4-.2ZM184.4 286.9l1 .8-.3.4-2 .7-.7-.7h-.4l-1.2.9-.4-.7 1.6-1 1.3.5 1.1-.9ZM135.8 170.1l.6-.1.7-.7v-.6h.4l.4-.3.7.1 1-.9.4-.7.8.2 1.6-.6.1 1-.5 1.2v1.8l-.2.3v1.2l-.4.5.1.8-1.1-.6-.5.2-1-.4-.4.1-2.7-2.5ZM330.8 45.1l4.6 2-1.5.6-.1.5 1.5 1.6L332 51l.5-1.6-.1-.3-2.4-1.3-2.6 1-1 2.3-1.4 1.2-1.7-.7-2.1.2-1.8-1.5h-.4l-1 .7-.9.1-.2.2-.2 1.7-3-.4-.2.2-.4 1.4-1.7.2-2.8 5.2-2.6 3.9.5 1-.4.9h-1.7l-1.2 2.7.1 3.5 1 1.3-.5 2.9-1.3 1.6-.6 1.1-.9-1.2h-.4l-3.3 2.8-2 .5-2.2-1.1-.7-2.6-.5-5.8 1.4-1.5 4.4-2.3 3.4-2.8 7.1-9.3 7.4-5.9 3.7-1.3 2.9.1 2.5-2.4 3 .1 3.1-.7ZM326.2 13.1l3 1.3-2.2 1.7-4.7.4-4.8-.6-.3-.8-.3-.2-2.3-.1-1.4-1.4 4.7-.9 2.6.9 1.6-1.1 4.1.8ZM324.2 22.5l-3 1.2-2.3-.7.7-.6V22l-.7-.8 2.8-.6.8 1.3 1.7.6ZM314 15.9l5 2.5-3.7 1.3-1 2.8-1.6.8-.8 2.8h-1.7l-3.3-1.9 1.3-1-.1-.4-2.5-1-3.2-3.1-1.2-2.6 4.2-1.3 1 1.2h2.5l.8-1.4 2.2-.1 2.1 1.4Z"/><path fill="#efc026" d="M319.3 222.8h-.7l-.3.2v6h-1.4l-.3.3v11.8l-1.4.8-.8.1-1.6-.5-.3-.7-.7-.5h-.3l-.6.7-1-1.1-.7-1.3-1.3-5.8v-2.1l-.3-1-1.5-2.3-1.3-3.2-1.4-1.6v-1l1.5-.6h1l1.2.8 6.9-.2 1.2.9 4.1.3Z"/><path fill="#5b5b5b" fill-opacity=".1" d="m319.6 222.7 4.3-1.1 1.3.2-1.1.3-.9.6-.7-.7-2.9.7ZM565.3 217.4v.7h-.2l-.1-1 .3.3ZM565.1 229.8l-.2.1-2-1.2-2.2-2.3 1.2.6 3.2 2.8ZM306.1 152.4l1 1h.3l.8-.4.4 2.3.6.6.1.6.5.5-.2.6-.7 3.5v2.2l-2 1.6-.9 2.4.7.8v1l.2.3h.8l-.6.8-1-1.6-.6-.2-1.5 1-1.1-.6-1-.1-.6.3-1-.1-1 .7-.8.1-2-.9-.9.4h-.7l-.6-.6-1.9-.6-1.8.2-.6.4-.3 1-.6.9v1l-1.1-.8-.9.2v-.6l-.2-.3-1.7-.3-.1-.8-1-1-.2-.8.1-.5h.9l.7-.7 2.3-.1 1.4-.3.2-.2.2-1 1-1.3v-3.8l2.2-.8 4.9-3.4 5.6-3.3 2.7.7Z"/><path fill="#5b5b5b" fill-opacity=".1" d="m307.1 170.9.5.4-.2.7-1.5 1.4-1.3 3.5-1 .8-.7 2.1-.9.5-1-.7-.8.2-1 .9-.5.1-1.3 2.8-1.5.5h-.8l-.6.3h-1.1l-.8-1-.6-1.2-1.2-1.2h-2.7v-3.5l.3-1 1.3-1.5v-.6l.3-.8-.4-1 .1-2 .5-.7.2-.9.4-.2 1.6-.2 1.6.6.7.6h1l.7-.4 2 1 1-.1 1-.7h.9l.5-.2 2.4.5 1.2-.9 1.2 1.9h.5Z"/></g><path fill="#efc026" fill-rule="nonzero" d="m318.3 116.1-.8-.9.7-.5.2-.6 1.4 1.1-.3.5-1.2.4Z"/><path fill="#5b5b5b" fill-opacity=".1" fill-rule="nonzero" d="m274.2 174.6.6.2.4.6.7.4.8-.4h.7l1 .2.4 2.2-.7 1.4-.4 2 .7 1.5v.3l-1.7-.3h-1.3l-2 .3-2.8 1 .2-2-.8-.9-1-.5.3-.6v-1l.2-.4v-1l.6-.3.2-.3-.8-2 .1-.4.4-.1.4.2h1.3l.5-.5h.5v.4l.5.2 1-.2ZM308.2 173.4l.7 1.2-1 .2-.6-.2-.4.2-.3.8v.3l1 1 .8.4.6 1.7-1 2-.4.4-.1 2.5 1.6 2.6.7.5.2 1.7-2.5-.7h-7.6l.1-1.3-.7-1.1-.8-.4-.3-.7-.4-.2 1.2-3h.5l1-1h.4l1.1.7 1.3-.7.7-2.2 1-.8 1.3-3.4 1.5-1.4.2-1.1-.6-.6v-.2l.6.9.2 1.9Z"/><path fill="#5b5b5b" fill-opacity=".1" d="m314.2 186.2-.1.6-.8 2-.1 2.5-.4 1.2-.1.4-1.1.8-.8 1-.8 1.6v1.4l-2.1 2.2-.3-.2-.4-.5h-1l-.6.6-1.1-.7-1 .8-1-1.3 1-.8v-.3l-.5-1 1.5-.4.2-.5.7.5 1.5.1.7-1 .3-1.1-.2-1.5-.8-1 .7-1.8v-.3l-.7-.3-1 .1-.4-.6.1-.4h1.9l2.7.9.3-.2.2-.9.8-1.5.8-.7 1.9.3Z"/><path fill="#5b5b5b" fill-opacity=".1" d="m310.4 187.3-.1-.8-.8-.5-.5-.8-.2-.7-.7-.8v-2.3l.5-.3.8-1.6 1.3-.1.4-.4.6.4 2.1-.7 1.7-1.3v-.7h1.9l1.6-.8 1.3-2 .8-.5.8-.2.2.6.8 1-.2 1.3.2.7 2.7 1.9.1.6 1.7 1.5.5 1 1.4 1-2.6-.2-1.3.6-.8-.3-1.8.8-.9-.2-.3.3-.4.8-2.3-.4-1-.6-1.7-.5-1 .6-.7.8-.2 1.1-2.2-.2-1 .8-.7 1.1ZM339.9 129.8h.4l-.2.1-.2-.1Z"/><path fill="#efc026" d="m45.4 49.8 2.8.5 2.7 1.5 1.8.2 1.7-1.2 2-.8 2.5.3 2.5-1.3 2.6-.7 1 1.2h.4l1.3-.6.5-1.4.8.2 2.8 2.7h.4l1.8-1.7.3 1.7.3.2 2-.4.8-1 1.8.2 2.5 1.3 6.4 1.6 1.6-.2 1.8 1.2-2 1.2-.1.3.2.2 3 .6 4.7-.3 1.3-.5 1.7 1.6h.3l1.8-1.4v-.5l-1.4-1 .7-.7 3.2-.4 1.3.6 1.6 1.5h2l3.2 1.3 2.7-.5h2.4l.3-.2-.2-1.6 1.2-.4 2.4.8v2.6l.2.3.3-.2 1-2.1h1.1l.3-.2.7-3-1.8-2-2-1.2.2-3 1.8-2.2 2 .5 1.8 1.4 2 3-1.3 1.4.1.4 3 .6v3.2l.3-.1 2.1-2.2 1.7 1.7-.4 2.2 1.6 2h.4l1.8-2.1 1.2-2.6.2-3.1 4.5.6 2 1.3.2 1.3-1.4 1.4v.4l1.2 1.5-.2 1.1-3.2 1.9-2.2.4-1.7-.8-.4.1-.5 1.4-1.6 2.3-.5 1.2-1.8 1.7-2.3.2-1.5 1.2-.2 1.7-1.9.4-2 2.1-1.9 3-.6 2-.1 3 .2.3 2.3.4 1.5 4 .2.2 2.3-.5 3 1 1.7.9 1.3 1.1 2 .7 1.8 1 4.5.3-.3 1.9.5 2.3 1.4 2.6L148 97h.3l1.4-.9 1-2.5-1-3.6-.9-1 2.4-1.1 2-1.7 1-1.9-.2-1.7-1.1-2.1-2-1.8 1.9-2.6-.7-2.3-.6-3.8 1-.5 4.6 1 1.4-.7 3.4 2.3.7 1 2.8.2v2l.5 3.2.2.2 1.5.3 1.1 1.4h.4l2.4-1.3 1.7-2.8.8-.9 5.2 8-.6 1.3.1.3 2.2 1.4 1.5 1.3 2.8.7 1 .6.6 2 1.4.4.5.8.2 2.2-2.3 1.6-2.8.8-2.1 1.8-2.8.3-3.6-.5-4.4.2-1.5 1.6-2.2 1-4.4 4.8v.4l.2.1 1.4-.3 2.8-2.9 3.5-1.7 2.3-.2 1.2.8-1.4 1.5.5 2.3.7 1.8 2.3 1 2.8-.2 1.4-1.9.2 1 .8.6-1.8 1.1-3.7 1.2-1.7 1-1.8 1.3-1-.1v-1.4l2.7-1.6.2-.2-.3-.3-4.4.3-1-1v-3l-.8-.6-1.2.3-.5-.5h-.4l-1.3 1.6-.5 1.7-.5 1-1.2.3-.3.6h-5.6l-.8.4-1.7 1.4h-.4l-1 .6-.7-.4-3.2 1-.6.7.1.4 1.2.2-1.2.2-1.3.6h-1.4l-2 1.1h-.4l.9-1.5 1.1-.8.1-1.5.8-1.4.4.4 1.3.2.8-.8v-.3l-1.8-2.4-1.6-.4-3.7-.4-.3-.4h-.5v-.7l-.5-.2.1-.8-.5-.5.2-.4-.2-.4-1.8-.3-.5-1-.6-.5-3-.4-.7.8-1 .4-.6.7-1.9-.5-1.4.2-1.6-.6-2.8-.5-.4-.3.3-1-.3-.3h-.6l-.2.3v.6H75.7l-4.3-3-3-1-1-1.8.3-1.3-.2-.2-2-1-.4-1.9-2-1.6v-1l1-1.1-.2-1.8-2.9-1.5-2.7-4.4-2.7-2.2-.9-1.3h-.3l-1.7.8-1.5 1.3-2.6-2.7-1.7-.6-1.4-.1-.1-25.3Z"/><path fill="#efc026" d="m175.6 107.1 1.4.4h1l-.8.4-2-.8-.2-.4.2-.3.4.7ZM188.4 97.8l-1.2 2v.4h.4l1-.7.7.3-.4.4v.4l1.6.7 1-.5 1.3.5-.5 1.4.3.3 1-.3.6 2.2-.6 1.6h-.6l-.8-.2.4-1.5-.6-.5h-.4l-1.9 1.8h-.2l.7-.6v-.5l-1.7-.5h-5l-.1-.2.9-.6v-.4l-.5-.4 1.3-1.2 1.7-3.5 1-1.2 1.4-.7h.3l-1.1 1.5ZM74.3 102.6l-.4.2-2.6-1-.5-.7-1.5-.8-.4-.7-1.7-.4-.4-1.1 4 1 1.4 1.7 1.7 1 .4.8ZM175 100l2 .5 1.6.8-2.6-.6-1-.7ZM58.6 90.6l.6.2 1.3-.2-.5 2.3 1.2 1.5-.9-.9-.7-1-.8-.7-.2-1.2ZM149.1 70.5l-.4 1-.5-.1-.3-.6.6-.6h.4l.2.3ZM136.9 38.5v.2l1.4 2h.4l1.5-2.4 4-1.3 2.7 3-.3 2 .4.3 3.3-1 1.6-1.1 3.6 1.5 2.2 1.4.2 1.2.3.2 3-.6 1.8 2 4 1.1 1.4 1.2 1.4 2.5L167 52v.4l4 2 2.6.5 2.6 2.7h2.3l-.4 1.7-2.7 3-2-1-2.6-2.7-2.4.3-.2.2-.1 1.8 1.7 1.6 2.3 1.3.6.7 1 2.6-.4 1.5-1.8-.6-4.2-2.2-.4.1.1.4 4.1 3.8.1.4-4-1-3.6-1.4-1.8-1.2.4-.5V66l-5-2.7-.5.3v.5l-4.5.4-1.1-.7 1-1.7 3-.1 3.4-.3.2-.4-.5-1 .6-1.1 2.1-2.8-.4-1.5-.8-1.1-2.5-1.4-3-1 .6-.3v-.4l-1.7-2-1.5-.2-1.3-1h-.4l-.8.8-3 .4-6-.7-6.3-1.3-1-.8 1.4-1.2v-.3l-.2-.2h-2.1l-.5-2.9 1.2-2.7 1.6-1.2 3.7-.8-1 1.9ZM144.7 68.9l-1.8 1.3-1-.1-.1-.4 1-1 1.9.2ZM139.3 61.3l.2 1.1.5.2.7-.3.9.6 3.6 1.8.1 1.1.4.2 1.1-.2.8.6-1.1.6-2.4-.6-1-1.2h-.3l-1.6 1.4-2.1 1.2-.5-1.3-.3-.2-1.4.2.9-1 .2-2 .5-2.3.8.1Z"/><path fill="#efc026" d="m155.1 56.6-1.7.1-.3-1 .6-1.5 1.3-.3 1 .7v1l-.9 1ZM90.1 39l-.7 1.2.3.4 3.7-1 2.2 1.6h.3l1.8-1.5 1.2.9 1.4 3h.5l.8-1.5-1-3 1.1-.3 1.6.4 1.7 1.3 1.7 5.3 5.7 2.9-.1.9-2.6.2-.2.4 1 1-.4.8-2.9-.4-3-.8-2 .2-3.1 1-7.1.7-1-1.4-2.2-.8-1.5.3-1.7-2 3.2-.7 2.5.1 2.2-.5.2-.3-.2-.3-3.3-.7-5.9.2-.5-.8 3.5-1.1.2-.3-.2-.2-2.6.1-2.5-.7 1.2-2 1.1-1.3 4.4-1.9 1.2.6ZM121.4 51.1l-.7.8-2.1-.8-1.4.2-1.9-1 1.2-.8 1-1.1 2.6 1.3 1.3 1.4ZM79.6 44.1l-4 1.3-1-1.3-3.6-1.5 1.8-3.5 1.5-2v-.4l-1.4-1.6 5.1-.5 2.5.7 4.2.2 3 2-1.7.7-4.2 2.3-2 2.2-.2 1.4ZM113.9 36.8l2 .7 2.8-.4.3.6-1.4 1.4v.4l2.5 1.3-.3 2.5-2.6 1.1-1.5-.2-1.1-1.1-4-2.4v-.5l3.1.3.3-.1v-.6l-1.8-1.8 1.7-1.2ZM125.9 39.6l-2 2.4-1.5-.2-1-2.5v-1.5l.8-1.3 1.6-.8 3.4.1 2.8.7-2.2 2.5-1.9.6ZM154.1 39v.5l-3.2-.2-1.8.4L147 38v-.9l.6-.1 3.8.3 2.7 1.7ZM106.4 38l-1.1 1.6-2.2-2 .3-.1 2-.1 1 .6ZM123.3 25.5l2 1.2h3.2l1.2 1-.3 1.1.1.4 1.9.7 1.2.9 4.7.4 2.8-.7 3.4-.3 2.6.2 1.7 1.3.3 1.1-.9.7-2.4.7-2.1-.4-4.9.6h-3.4l-2.7-.4-4.4-1-.5-1.7-.2-1.7-1.8-1.7-3.5-.4-1.7-1 .5-1.2 3.2.2ZM100.3 28.6l.7 1.3.3.1 1.4-.5h1.5l.3 1.4-.9 1.5-5.6.5-4.3 1.5h-2.3l-.1-.6 3.3-1.4.1-.4-.3-.2-7.5.4-2-.4 2-3 1.5-1 4.5 1.2 3.1 2 3 .3.3-.4-2.3-3 1.3-1.1 1.5.3.5 1.5ZM124.9 32.6l-.7 1-2.3-.2-1.7-.7.7-1.2 2.1-.9 1.4 1.2.5.8ZM117.1 27.2l1 1.2v1.4l-.7 2.4-2.6.3-1.6-.5.1-1.7-.3-.3-2.5.2v-2h1.6l2.5-1.2 2.3.2h.2ZM86.7 23.6l-.2 2.3-1.1 1.1-1.6.2-3 1.5-2.7.5-1.7-.6 2.4-2.3 3.4-2.2h2.5l2-.5ZM167.6 2.2l4.5.4 3.6.5 2.9 1.1v.7l-4 1.7-4 .8-1.7 1-.1.3.2.2h2.7l-3 1.8-3 1.2-2.7 3-3.4.7-1.2.7-5 .4-.3.3.2.3 1.6.3-.5.4v.4l1.1 1.6-1.3 1-2.6 1-.9 1.6-2.2 1-.2.3.3.8.3.2 2.6-.1v.4l-4.3 2-4.3-1-5 .6-2.5-.4-3-.1-.1-1.3 2.9-.8.2-.3-.8-2.4h.7l4.4 1.5.3-.2v-.3l-2.3-2.4-2.5-.6 1-1 3-1 .6-1.4-.1-.4-2.3-1.4-.5-1.5 4.1.1 1.5.4 2.6-1.4.2-.3-.3-.2-3.8-.4-5.8.2-3-1.3-1.3-1.6-2-1.1-.2-1 2.2-.7 2-.1 3.3-.7 2.5-1.6 2 .2 1.7 1.2h.4l1.2-2.2 2-.6 3-.5 5.1-.2 1 .4 4.9-.7 7.4.5ZM97.1 22.8l-3 1-2-1 1-.8 2.3-.4 2 .5-.3.7ZM124.6 23.5l-3.5-.1-.2-.5h2.9l.8.6ZM121.3 21.6l-2.3.7-1.2-.8-.6-1.2-.1-1.2 2.8.3 1.8 1.2-.4 1ZM114.1 21.1l.5 1-2.2-.3-2.9-1.2-3-.1 1-.6v-.5l-2-.8v-1l3 .5 4.4 1.4 1.2 1.6Z"/><path fill="#efc026" d="m136.1 15.9 1.7 1.1-2 1-3 2.7-2.8.3-3.4-.5-1.6-1.3v-1.1l1.2-1v-.3l-.2-.2h-3l-1.7-1.2-1-1.6 1.1-1.5 1-1.2 1.7-.2.1-.5-.4-.5 3.3-.1 2.2 2 5.5 1.6 1.3 2.5ZM97.3 19.7l-1.3.5h-2.6l1.5-1.1 2.4.6Z"/><path fill="#5b5b5b" fill-opacity=".1" fill-rule="nonzero" d="M327.9 183.4h1.5l1 1.1.8.4.6-.3h.8l.8-.2.3.6 1.4 1-.1 1.9.5.3-1 .7-1 1.7-.1 1.4-.4.7v1.2l-.5.5-.5 2 .4.9-.2 2.9.4 1-.3.8.6 1.2 1 1 .2.9.3.3-2.8.5-.6 1.2.4 1-.5 3.6.1.2 1.7 1h.3l.1 1h-.9l-1.2-1.6-1.3-.3-.4-.7-.3-.2-1 .5-1-.2-.8-.8-1.7-.2-.2-.5-1.4-.1-2 .2.1-1.6-.6-.7-.1-1 .2-1.1-.3-.6v-1l-.3-.3h-1.7v-.3l-.2-.3h-.9l-.2.3-1.1.2-.6 1.3-.7-.3-1.6.4-1-1.3-.8-2.2-.3-.2h-5l-1.7.2.4-.3.2-1 .5-.3h.6l.5-.4h.6l.2.4 1 .3 2.4-2.4v-1.5l.6-1.6 1.8-1.6.3-.7.4-1.3v-2.4l.9-2 .3-2 .6-.8.7-.5 2.4 1.1 2.5.5.3-.1.6-1 .8.1 1.7-.8.6.3h.6l.4-.5.5-.1 1.4.5Zm-19.3-86 .8.7 1 .1.1.6 1 .5.3-.1.1-.4h.8l.3.8 1.2.2.4.5-.7.5-.7.9h-1l-.4.5-.7-.3h-.6l-1.5-.6-.6.2-.8.7-1.1-.6-1.8-1.4-.3-1.3 3.2-1.7.4.2h.6Zm31 32.8.3.2-1 .4-.5-.2-.2-.3 1.4-.1Zm-197.7 43.6.3.6 1.1 1.1-.3.3.2 1-.1.8-.8-.4v-.8l-1.7-1-.2-.5-.5-.3h-.3v.6l-1-.6.3-1-.3-.3.2-.2 1 .4h.8l.4.3.5.2.4-.2Zm6.7-20.8.9.7 1.4-.2 3 2.2 1.4.3v.2l.2.4h1.2l1 .6-2 .3h-2.8l.5-.5v-.4l-.8-.4-1-.2-.5-.4-.4-1h-1.1l-1.5-.5-.6-.4-2.2-.2-.2-.2.5-.4-.3-.3h-1.9l-1.2.9h-.6l-.4.4-.7.2.8-1 .6-.2 2.5-.7 2.7.1 1.5.7Zm188.3 83.7.3 1.3-.2.6-.7.2-.8-.8v-.4l.5-1.1.9.2Zm7.1-102.3v-.8l.4-1 .9-.7v-.2l-.2-.8-.8-.2-.1-1.2.3-.7.9-.8.1-.8.4.2 1.8-.6 1 .4h1.3l2-.8 2.2-.2-.4.6-1 .5v1.6l-.5 2.2-7 3.8-1.3-.5Z"/><path fill="#efc026" fill-rule="nonzero" d="m340.9 191.7 1.3-1.8.6-1.4-1-2.7-.7-1.1 1.9-1.9.5.2v1l.7.5h1.3l2.2 1.5 2.4.2.7-.7 1.3-.6.6.5h.8l-1.2 1.7v6.1l.8 1.3-.9.6-.5.6-.7.4-.2 1.1-.6.8-.3 1-.5.4-2.1-1.5-.2-1-6-3.4v-1.1l-.2-.7Z"/><path fill="#5b5b5b" fill-opacity=".1" fill-rule="nonzero" d="m324.3 177.3.7-.5.8-2.2 1-.2 1 1.4.7.2.7-.3h1l.4.4h1.7l.3-.4.7-.3.4-.5.4-.2 1.2.9 1.1-.2 2-2.2-.3-1.5 1-.3v1l.2 1.3.9.8.1 1.3.3.3v1l-.1.3-1 .1-.6 1 .2.4 1 .1.7.8.4.7.7.3.9 1.7-3 2.7h-1.2l-1.2.3-1-.3-.8.4-2-1.8-.9.3h-.7l-.6.2h-.5l-1.2-2-1.3-.7-.5-1-1.7-1.5-.2-.6-1.7-1.2ZM190.4 181.9l1.4.4-.8 1.3.1 1.2.7 1-.5 1.3-.2.5-.8-.3-.8.1h-.6l-.4.1-.1.5.2.5-.6-.1-1-1.4-.2-.8-.6-.2-.7-1 .3-1.1 1-.6.2-1.2 1.8.2.4-.3 1.2-.1ZM131.4 168.4l1-.8 1.5.9.7-.2.2.1-.2.8h-.7l-2.5-.8Z"/><path fill="#efc026" fill-rule="nonzero" d="m307.1 109-.4-.9.2-.7 1.1.1 1-.4 1.4-.1.4-.3.1.3-1 .5-.3.8-.5.2-.2.5-.8-.3-.5.3h-.5Z"/><path fill="#5b5b5b" fill-opacity=".1" fill-rule="nonzero" d="m496.4 124.6-.7-.3-.6.4-.8-.6.7-.7.4-1.8-.4-.4-1.4-.6 1.1-1 1.8-1 1.1-1.4.8.6h1.4l.3-.3-.2-.8 2.4-.8.6-1 .6.8-1.4 1.5v1.4l-.8.3-1 1-1 .3-.9.7v1.4l.6.3.8.6-.1.2-1.8.2-.7 1h-.8ZM364.1 139.9l.3.6-.1.5.4 1h-.7l-.5-.8-1.1-.2.9-1.2.8.1ZM262.5 167.1v1l.4 1 .7.6v.9l-.9-.1-.5.2-1.3-.4-3.9-.1-1.6.3-.2-.7h1.2l1.4-.6.7.4h.7l.9-.4v-.4l-.3-.5-1.2.1-.8-.4h-.5l-.5.4-1.5.1-.6-1.2-.6-.4.4-.3 1.7-2.5.7.1 1-.4h.8l1.8 1 2 2.3ZM265.4 177.8l-1 1.4-.5.8-1.4-.7-.8-.9-.4-1.6.8-.7.5-.8.8-.3h1.1l.7 1 .2 1.8Z"/><path fill="#efc026" fill-rule="nonzero" d="m372.2 116.3.4-.9-.4-.7-2-.8-.7-1.8-1-.6v-.2l1.4.1.3-.2v-1.4l1.3-.2 1.4.2.3-.2.4-2-.4-1.4-.2-.2h-1.6l-1.7-.4-2 1-1.4.3-.5-.2v-1l-1-1.5h-1.4l-1.2-1.3.9-1.4-.4-.6 1-2 1.5 1 .4-.1.2-1.5 3.3-2.3h2.5l5.7 2.4 2-1h2.5l2.1 1h.3l.4-.5h2.5l.4-1.2v-.3l-2.5-1.3 1.3-1v-.6l1.3-.5.1-.4-1-1.4.5-.5 6.2-.8.9-.6 4.2-1 1.5-.9 2.8.5.5 2.2.3.2 1.7-.5 1.9.7-.2 1 .3.3 1.7-.1 3.3-1.7v.2l2.1 1.6 3.7 5.8h.5l.7-1 2.2 1.1 2.6-.5.8.3.7 1.2 1.2.6.7.8h2.2l.7 1-1 1.1-1.4.2-.2.3v2.1l-.8.8-3.2-.7-.3.2-1.3 3.7-.7.4-3.3.9-.2.3 1.4 3.4-1 .4v1l-.6-.2-1-.7-5.3-.3-.6.2-2.5-.8-1 .4-.3 1.2-2.5-.6-1.2.2-.5 1-3.2 1.7-.7 1.5h-.3l-.6-1h-2l-.3-1.5-.3-.2h-.5v-2l-2-1.5-5 .4-1.5-1.8-4.5-2.5-4.4 1.2-.2.3v7.3l-.4.1-1-1.5-1.3-.6-2.1.4-.4.4ZM361.9 141.5l1.4.2.6.8h1l.6 1.4.9.5.3.7 1 .7v1.3l.2.6 1.1 1.6.5.4h.5l1.2 2.8 5 .9.3-.2.6.8-1 3.3-5 1.7-4.9.7-1.5.8-1.3 1.8-.5.2-.6-.5h-.6l-2-.3-2.3.1-.6-.4h-.4l-.5 1 .1.7-.2.2-.6-1-.2-.7-.8-.7-1-1.4-.5-1.5-1.1-1.2-.7-.3-1-1.6-.2-2.3-1-2-.8-.7-.9-.4-.9-2.3-.5-.5-.7-1.3-1.9-2.7-.7-.2.3-1.3v-.5l2 .2.7-.5.4-.6 1.1-.3.5-.7.5-.2v-.5l-1.4-1.5 3-.8.3-.3 1.9.5 2.5 1.3 4.7 3.7 3.1.5Z"/><path fill="#5b5b5b" fill-opacity=".1" d="m192.9 251-.6 1-1.8 1-1.1-.3-1 .2-1.6-.8h-1l-.9-.8.2-1 .4-.6v-1.8l.8-3.2.8-.1 1.6 1.3h.8l3 2.2.7 1-.6 1 .3.9ZM330.6 244.8l-.3.1-1-1.1.7-1 1.5-1 1 1-.7 1.2-.8.2-.4.6ZM268.8 179.1l.1 1-.3.7v.3l1.7 1.2-.2 2-1.8-.8-4-3.1.5-1 1.4-1.5.6-.1.6.7-.2.6.4.6h.6l.6-.6ZM340.7 174.6l-.2-.5-.8-.6-.2-1 .2-1.3-.2-.3-.9-.2-.3.4-.8.1-.2.5.3.4.2.8-1.6 2-.7.1-1.6-.9-.7.3-.3.6-.7.2-.2.4h-1.3l-.4-.4h-1.2l-.6.2-1.7-1.6-1.4.4-.5.8-.4 1.5-.8.4-.6-.4.2-1.8-1-1.2-.1-1-.6-.7v-.9l-.4-.8-.5-.1.5-.9-.2-.7.4-.4v-.4l-.2-.3 1-2 1.3.1.2-.3v-7.3h1.7l.2-.3v-3.2h19.6l.4 1.3-.3.5.2 1.8.6 2.2 1.4 1-.6.7-1.1.3-.7.6-1 3.8.2.8-.3 1.4-.6 1.6-1 .9-1 2-.7.6v.8ZM355.8 172.5l-.4.4H354l-.1-.7 1-1.3.5.2.6-.3.1.7-.8.3v.5l.5.2ZM355.7 166.1l.2-.3-.1-.7.1-1 .6-.5v-.9l.2-.5.7.3 2.2-.2 2.6.3.7.5.9-.4 1.1-1.8 1.5-.7 4.7-.6 1.7 3.6-1.1.6-.4 1.3-4.2 1.4-1.5 1.3h-1.3l-1 .7-2.8.5-1.1 1-2.3.1-.3-.8v-1l-1.1-2.2ZM162.4 161l.1-.4-.3-.5.3-.2.1-.7v-1h1l1.4.4.2.5h1l.1.6.7.1.5.4-.2.3-.8-.3h-1.3l-.8.4-.6-.4-.6.3-.6 1-.2-.5Z"/><path fill="#efc026" d="m20.4 157.5.6.3.5.6-1.2.8-.3-1 .4-.7Z"/><path fill="#5b5b5b" fill-opacity=".1" d="m297.2 126.8-.2.7.2 1.7-.3 1.5-1 1.2.2 1.7 1.3 1 .1.6 1 .7 1.2 4.8v.8l-.4 3.4.2 1-.6.7v.3l.9 1.3v.8l.7 1 .3.2.7-.3 1.1.7.6.8-5.6 3.3-4.8 3.4-2.3.8h-1.6l-.2-1-1.7-.7-.5-.8-17.6-12.1v-2.5l2.6-1.3 1.6-.2 1.4-.6.7-1 2-.7.2-1.4.9-.2.7-.6 2.3-.5.4-.7-.1-.3-.4-.3-.6-1.9v-1.2l-.6-1 1.3-.9 1.8-.3 1.1-.8 1.6-.6 5.5-.4 1 .2 1.6-.7h1.6l.7.4h1Z"/><path fill="#efc026" d="M19.2 156.2h.1v.2l-.1-.2ZM123 101.2l.2 1 .8.6 2.8.5 1.6.7 1.5-.3 1.3.3-1 .4-2.5 1.8v.5l.2.3 1.6-.4 1.2.7 3.5-1.7-.2.4v.4l1 .3 1.2.8 3.1-.6.5.6.9.2.4.4-.9.1-1.5-.2-2.4.6-1.8 2.2.3.6h.4l.4-.4-1 3 .2 2.2.5 1 .4.3 1.2-.3 1.1-1.3v-1.5l-.5-1.3v-.8l.9-1.6.3-.2.3.5.3-.2.2-1 .5-.2v-.6l1.2.3 1.1.8v1.6l-.9.8v.7l.6.3 1.2-1 .3.2.4 1.8-1.7 2.5.1.4 1 .4 1 .2 1.3-.3 3.2-1.4 1.5-1.2v-.8l.4-.2 2.7.3 1.4-.7.1-.3-.2-1 2.3-1.6h5.5l.5-.6 1.2-.5.6-1 .5-1.6 1-1.4.7.4 1-.3.6.4v2.8l1.3 1.8-1.6.8-3.6 1.5-1.2 1.8v1.2l.5 1 .4.2-4.2.6-1.5.6-.1.4.2.2h-.2v-.2h-.4l-.5.6.1.5h.2l-.2 1.2-1 1-1-.7h-.3l-.1.3.3 1.1.4.4v.5l-.6 1-.8-.8-.2-1.6-.2-.2-.3.1-.4.9.2 1-.6-.3-.4.2.2.3 1 .5v1.7l.6.4.3 2.2-1 1.3-1.6.6-1.2 1.1-.8.1-.9.7-.3.7-1.8 1.2-1.7 2-.3 1.4.3 1.5.6 1.6.7 1.3v.8l.8 2-.1 1.9-.4 1h-1l-.3-.9-.6-.4-2-3.5.4-1.1-.4-1.3-1.4-1.6-.7-.3-1.9.8-1-1-1-.4-2 .2-1.6-.2-1.3.1-.7.4-.2.4.3.4v.8l-.2-.2-.5.4H130l-1.4-1-1.5.2-1.2-.4-2.5.5-1.7 1.4-1.6.8-1 1-.4 1 .2 2.4h-.2l-2.4-.9-.8-2-.9-1-1.5-2.5-1.2-.7h-1.6l-1.1 1.4-1.2-.5-.8-.5-1-2-2.7-2.1h-3l-.2.2v.5h-4.4l-6-2-.3-.6-3.9.4-.2-.9-1.1-1-.8-.4-.4-.6h-.8l-.7-.6-1.5-.2-.3-.2-.2-1-1.7-2-1.3-2.6v-.6l-2-2.2-.2-1.6-1-1.1.4-1.6v-1.8l-.6-1.5.6-2 .4-3.8-.3-2.9-1-2.7 2.1.5 1 2h.4l.5-.8-.8-3.2h46.4l.3-.3.1-.3Z"/><path fill="#5b5b5b" fill-opacity=".1" d="m343.6 133.2-.6.4 1.2-2.4h.4l.2.5-.8.6-.4.9Z"/><path fill="#efc026" d="M159.4 119.1h-.6l2-.4-1.4.4Z"/><path fill="#5b5b5b" fill-opacity=".1" d="M293.5 100.5h-.3l.2-1 .2.3-.1.7Z"/><path fill="#efc026" d="m21.3 45.2 1.1 1.4h.3l.7-.5 2.5.1v.4l.1.3 2.6.5 1.8-.2 3.5 1 3.2.2 1.3.4 2.3-.5 4 1.3v25.7l.4.3h1.6l1.5.7 2.7 2.7h.4l1.6-1.4 1.5-.6.8 1.1 2.6 2.1 2.8 4.5 2.8 1.5v1.2l-.6.8-.8-.7-1.4-.7-.4-2-2.3-2-1.1-2.4-4.3-.2-1.8-.7-3.6-2.5-4.6-1.4-2.4.2-3.2-1.1-2.2-1.1-1.8.5-.2.4.2 1.5-2.6.6-1.6 1-1.5.4-.2-1.2.7-2.3 1.6-.7.2-.4-.5-.7h-.3l-2.3 1.4-1 1.7-2.4 1.8v.4l1 1-1.4 1.5-3.4 1.8-.5 1.2-2.6 1.2-.7 1.1-1.8 1-1.3-.2-4.7 2.2-2.7.7 3.3-1.7 1.8-1.3 2.2-.4.8-.9 2.4-1.4 1.8-1.6.2-1.8.8-1.4v-.3l-.3-.1-1.8.7-.4-.4h-.4l-.6.7-1-1h-.4l-.2.5-.4-.8-.5-.1-1.6 1h-.7l-.1-1.3.2-1.1-1.1-.9-2.3.4-1.4-1-1-.6-.2-1.5-1.1-1 .5-1.2 1.4-1.4.6-1.3 1.1-.2 1.4.4 1.2-1.2 1.3.1 1.3-.8.1-.3-.3-1.2-.7-.5 1-.8v-.2l-.3-.2h-1l-1.6.4-.5.6-1.3-.6-2.3.3-2.3-.6-.7-1L0 61.1l2-1 3.4-1.3h1v1l.3.4 3.6-.2.2-.4L9 57.8l-2-1.1-1.3-1.4-1.6-1.2-2-.9.7-1.1h2.8l2.3-1.5.5-1.5 1.6-1.4 1.6-.3 3.2-1.4 1.7.2 2.5-1.6 2.3.6Z"/><path fill="#5b5b5b" fill-opacity=".1" d="m24.8 82.9-1.5.8-.7-.5-.2-.8 2.2-1h.9l.5.6-1.2.9ZM3.4 76.1l-.8.3-1.4-.8 1-.2 1 .2.2.5ZM601.4 66.6l1 .3.9-.2 1.3.6 1.3.3-1 .4-1.9-1-1.4.1-.2-.1v-.4Z"/><path fill="#5b5b5b" fill-opacity=".1" fill-rule="nonzero" d="m401.8 283.2-2.1.2v-1l.3-.9.8.6 1.4.2-.4.9ZM284.4 173.4v.8l1 1 .1.8.3.4v3.8l.3 1-.9.2-.6-1.4-.2-.7.4-1.5-.4-.8-.2-2.5-.7-1 .1-.1h.8ZM323.4 158.5v6.5H322l-.8 1.3-.4 1.1.2.5-.5.6.1.6-.6 1.3.4.3h.4l.2.4v.9l.6.7-1 .2-1 .7-1.1 2-1.5.7-1.6-.1-.6.1-.2.4.2.4-1.4 1.1-2 .6-.7-.4-.5.5h-.8l-.7-2-.8-.4-.8-.9.2-.4h2l.3-.4-.9-1.4v-2.3l-.7-1.1v-.7l-.2-.3h-.8v-.8l-.7-.8.7-2 2.2-1.8v-2.2l.7-3.5.4-.7-.1-.4-.6-.5-.2-.7-.5-.4-.3-2.4 1.4-.8 13.4 6.5Z"/><path fill="#5b5b5b" fill-opacity=".1" fill-rule="nonzero" d="m325.4 136.8-.4.7.2 1-.4 1.1.4 1.4v16.3h-1.7l-.2.6-13.1-6.6-3 1.6-1-1-2.5-.7-.7-1.1-1.4-.8-.8.2-.5-.8-.1-.8-.9-1.2.6-.8V143l.2-1.5-.6-2.3.8-.6.1-.8-.1-.7 2.3-1.7.2-1.3 1.7.5h.8l1.4.2 2 .8 1 1.7 3.9 1.1 1.7 1 1-.5 1-.9-.3-1.5.5-.8 1.1-.8 1-.3 2.2.4.7.9 2.7.5.2.4Z"/><path fill="#efc026" fill-rule="nonzero" d="m370.9 150.8 1.3-.3h2.5l3.3-3.2.1.2.2 1.1h-.5l-.3.3v1.3l-.6.4v.7l-.5.7-.3 1-4.7-.9-.5-1.3Z"/><path fill="#5b5b5b" fill-opacity=".1" fill-rule="nonzero" d="m161.7 172.8.4.6v.7l-.8 1.2.6 1.4h.3l1-.2.4-1.2-.6-.8v-1l1.8-.6.2-.4-.2-.6.2-.2.5.8 1.4.2 1 .9v.4l.2.3 3.3-.1 1 .7 1.3.2 1.1-.5.2-.4 2.3-.1-.2.3.6.8 1.5.3 1.2.8.2 1.2.3.2 1 .2-1.1 1-.2.5.4.7-1.1.3-.2.3v.7l-.4.4v.3l1.3 1.6-.5.4-3 1-.5.3-2.5-.6-.5.2v.4l.6.4v1l.2 1 .3.3h1.1l-.8.4-.4.8-1.8.6-.4.5h-1l-.9-.7-.5-1.8-.8-1 .7-.7-.9-2 .2-1.1.6-1.5-.1-.4-.7-.3-2.7.3-1.3-1.4-1-.2h-2l-.8-.6.1-.8-.1-.7-.4-.4-.2-.8-.7-.2.5-2 1.3-1.3ZM404.5 127.1l-1 .9-.1.3.5 1.6-.7.6v.9l-.3.5h-1.5l-.3.3.5 1-1 .5-.6 1.1v1.2l-.5.3-.6-.1-1.2.3-.4.5H396l-.9 1.1-.1 1.6-2 .7-1.1-.2-.5.4-1-.2-1.6.3-2.3-.8 1.3-1.6-.1-1.2-.2-.2-1.1-.3-.1-1-.6-1.4.7-1-.1-.4-.5-.2 1-3.2 1.4.6 1.4-.3.5-.9 1.2-.2 1-.6.4-1.6 1.3-.3.4-.6.6.4 1.4.1 1.7.6 1.3-.5.5.2h.4l.5-.8h1l.5-1.2.6-.5.5.3-.1.4.4.4v1.6l.8.6ZM405 127l1.2-.5.9-.8 2.7.2-1.5.5-3.3.6ZM357.4 126.1l.5.5 1-.2 1 2.1 1 .6v.8l-.7.8-.4 1.6 1.2 1.9 2 1 .9 1.3-.3 1.3.3.3h.2v.8l.6.6H363l-1.2 1.5h-2.9l-4.7-3.8-2.5-1.3-2-.5-.5-2 3.7-2 .7-2.2-.1-1.4.9-.4.8-1.2.6-.3 1.6.2Z"/><path fill="#efc026" fill-rule="nonzero" d="m258.4 59.1-.2 1.8 1.7 1.6-2 2-6.2 2.2-6.2-1.1 1.2-.8-.1-.5-2.7-1 2-.4.2-.2v-.9l-.3-.3-3.1-.5.8-1.4 2.4-.4 2.6 1.8h.2l2.5-1.5 2.2.8 2.7-1.5 2.3.3Z"/><path fill="#5b5b5b" fill-opacity=".1" fill-rule="nonzero" d="m310.7 202 .9 2.1 1.3 1.6 1.7-.3.8.2.2-.1.7-1.3h.8l.3-.4h.3v.3l.2.3h1.8v.9l.3.6-.2 1 .2 1 .5.7v2l.3.3 2.7-.3-.1 1.2.3.7-.2 1h-3.1l-.3.2v5.4l1.9 2.4-2.6.6-4-.3-1.2-.8-7.1.2-.9-.7-1.3-.1-1.6.5v-.7l.1-1.5.7-2.4 1-2.1 1.4-2 .2-1.3v-1l-.6-.8-.8-2 .6-1-.8-2.8-.9-1 1.7-.4 4.8.1ZM304 201.3l-.3-.8.8-.8.2.2-.7.7v.7Z"/><path fill="#efc026" fill-rule="nonzero" d="M311.6 102.8v1.5h-.7l-.2.4.2.3-.6 1.4-1.4.1-.9.5-3.5-.7-.4-.6-.3-.1-1.6.4-.3.3-2.2-.5.3-.6.7.5.4-.1.2-.4h1.3l1.3-.4.7.1.5.4h.4l.2-.6-.2-1.2.5-.3.5-.8 1 .6h.3l.9-.9.4-.1 1.2.6h.9l.4.2ZM333.7 199.6l1.8-2.1v-.5l-.4-1 .5-.3v-1l-.5-.8h1.8l-.3 1.8.5 1h.3l.7-.3.8-.1.4.1 1-.4v-.5l-.4-.4 1-1.1 5.8 3.3.2 1 2.3 1.6-.8 1.8v1.1l1.2.8-.4 1.2v1.5l1.2 2.7.5.3-1 .7-1.8.7h-1l-.7.5-1.5.3-2-.5h-.5l-.4-.5-.3-1.9-.8-1-2.2-.5-2.7-1-.8-1.7-.2-1.2-1.2-1 .3-.7-.3-.6v-.6l-.3-.4.2-.3Z"/><path fill="#5b5b5b" fill-opacity=".1" fill-rule="nonzero" d="m272.6 91 .3 1.4-1.2 2-2.9 1.2-1.8-.3 1.1-2-.8-2.4 3-2.5.3.8-.3 1.1.2.4h1l1.1.3Z"/><path fill="#efc026" fill-rule="nonzero" d="M369.9 149.1h-.6v-1.3l.5-.8.3.3v.9l-.2.9Zm-27.5 65.6-.2-1.8.4-1.3 2.3.4 1.7-.3.7-.5h1l1.8-.7 1.2-.8.3 6.2.3.8-.5 1.2-.6 1.1-1 1-3.5 1.6-2 1.8-.6.3-1.1 1.2-.7.5-.3 1.6.8 1.3.4 1.4.2.2v1.5l-.3.8.3.4-.1.5-.6.5-3.5 1.7-.8 1 .2.7.4.2v.5h-.9l-.5-2 .3-2.1-1.2-3.7 1.7-1.8.4-1.3.3-.3.2-1-.3-.6.5-2.4v-2.2l-1-.8-.9-.1-1.1-.9h-1.3l-.2-1.4 4.8-1.3.9.7h.6l.4.2.1.5-.3.9.1 1.2 1.2 1.2h.4l.5-1.1.8-.7-.2-2.3-.7-1.3-.8-.4Z"/></svg>